<?xml version="1.0" encoding="utf-8"?>
<!-- Generator: Adobe Illustrator 19.1.0, SVG Export Plug-In . SVG Version: 6.00 Build 0)  -->
<svg version="1.1" id="Layer_1" xmlns="http://www.w3.org/2000/svg" xmlns:xlink="http://www.w3.org/1999/xlink" x="0px" y="0px"
	 width="138px" height="30px" viewBox="0 0 138 30" style="enable-background:new 0 0 138 30;" xml:space="preserve">
<style type="text/css">
	.st0{fill:#1ABDC5;}
</style>
<polygon class="st0" points="1,7 1,11 4,11 4,23 8,23 8,11 13,11 13,23 17,23 17,11 22,11 22,23 26,23 26,7 "/>
<path class="st0" d="M30,7v16h4v-4h5v4h4V7H30z M39,15h-5v-4h5V15z"/>
<path class="st0" d="M56,1v6h-9v1v15h13V1H56z M56,19h-5v-8h5V19z"/>
<g>
	<polygon class="st0" points="134,19 134,7 130,7 130,19 125,19 125,7 121,7 121,19 116,19 116,7 112,7 112,23 137,23 137,19 	"/>
	<path class="st0" d="M95,7v16h13V7H95z M104,19h-5v-8h5V19z"/>
	<path class="st0" d="M78,7v22h4v-6h9V7H78z M87,19h-5v-8h5V19z"/>
</g>
<polygon class="st0" points="71.6,15.6 74,13.3 73.6,12.5 70.3,12.9 68.8,10 67.9,10.1 67.3,13.3 64.1,13.9 64,14.8 66.8,16.3 
	66.3,19.5 67.1,20 69.5,17.7 72.4,19.2 73.1,18.5 "/>
</svg>
