<?xml version="1.0" encoding="utf-8"?>
<!-- Generator: Adobe Illustrator 19.1.0, SVG Export Plug-In . SVG Version: 6.00 Build 0)  -->
<svg version="1.1" id="Layer_1" xmlns="http://www.w3.org/2000/svg" xmlns:xlink="http://www.w3.org/1999/xlink" x="0px" y="0px"
	 width="28px" height="30px" viewBox="0 0 28 30" style="enable-background:new 0 0 28 30;" xml:space="preserve">
<style type="text/css">
	.st0{opacity:0.75;}
	.st1{fill:#D1D3D4;}
	.st2{fill:#FFFFFF;}
	.st3{fill:#3EA848;}
</style>
<g>
	<g>
		<g class="st0">
			<rect x="1" y="0" class="st1" width="26" height="26.8"/>
		</g>
		<g>
			<rect x="1" y="1" class="st2" width="26" height="26.8"/>
		</g>
	</g>
	<path class="st3" d="M12.2,21.9c-0.3,0-0.5-0.1-0.8-0.4l-5.3-6.4c-1-1.2-1-1.6-0.9-1.8c0-0.1,0.1-0.2,0.4-0.2
		c0.3,0,0.9,0.3,1.7,0.8l4.2,2.8c0.2,0.1,0.4,0.2,0.6,0.2c0.3,0,0.6-0.1,0.8-0.4l8-9.4c1.1-1.3,1.3-1.3,1.4-1.3c0.1,0,0.2,0,0.2,0.1
		c0.1,0.1,0.1,0.3-0.8,1.8L13,21.4C12.8,21.8,12.5,21.9,12.2,21.9z"/>
</g>
</svg>
