<?xml version="1.0" encoding="utf-8"?>
<!-- Generator: Adobe Illustrator 19.1.0, SVG Export Plug-In . SVG Version: 6.00 Build 0)  -->
<svg version="1.1" id="Layer_1" xmlns="http://www.w3.org/2000/svg" xmlns:xlink="http://www.w3.org/1999/xlink" x="0px" y="0px"
	 width="32px" height="32px" viewBox="0 0 32 32" style="enable-background:new 0 0 32 32;" xml:space="preserve">
<style type="text/css">
	.st0{fill:#0983C6;}
</style>
<g>
	<g>
		<path class="st0" d="M1.1,15.8c0-8.3,6.6-15,14.7-15h0.6c8.1,0,14.7,6.7,14.7,15s-6.6,15-14.7,15h-0.6C7.7,30.8,1.1,24.1,1.1,15.8
			z M29.1,15.8c0-7.2-5.7-13-12.7-13h-0.6c-7,0-12.7,5.8-12.7,13s5.7,13,12.7,13h0.6C23.4,28.8,29.1,23,29.1,15.8z"/>
	</g>
	<g>
		<polygon class="st0" points="17.5,21.8 16.9,21.3 21.8,16.2 8.9,16.2 8.9,15.4 21.8,15.4 16.9,10.4 17.5,9.9 23.3,15.8 		"/>
		<polygon class="st0" points="8.4,16.7 8.4,14.9 20.6,14.9 16.2,10.4 17.5,9.1 24,15.8 17.5,22.5 16.2,21.3 20.6,16.7 		"/>
	</g>
</g>
</svg>
