<?xml version="1.0" encoding="utf-8"?>
<!-- Generator: Adobe Illustrator 19.1.0, SVG Export Plug-In . SVG Version: 6.00 Build 0)  -->
<svg version="1.1" id="Layer_1" xmlns="http://www.w3.org/2000/svg" xmlns:xlink="http://www.w3.org/1999/xlink" x="0px" y="0px"
	 width="33px" height="43px" viewBox="0 0 33 43" style="enable-background:new 0 0 33 43;" xml:space="preserve">
<style type="text/css">
	.st0{fill:#66B3DC;}
</style>
<g>
	<path class="st0" d="M30.8,5.1h-9.4v0c0-2.7-2.2-4.9-4.9-4.9s-4.9,2.2-4.9,4.9v0H2.2C1.1,5.1,0.1,6,0.1,7.2v33.5
		c0,1.1,0.9,2.1,2.1,2.1h28.6c1.1,0,2.1-0.9,2.1-2.1V7.2C32.9,6,31.9,5.1,30.8,5.1z M16.4,2.5c1.1,0,1.9,0.9,1.9,1.9
		c0,1.1-0.9,1.9-1.9,1.9c-1.1,0-1.9-0.9-1.9-1.9C14.4,3.4,15.3,2.5,16.4,2.5z M29.5,39.3h-26V8.4h5.9C8.1,9.6,8,11.4,8,11.4h8.3h0.2
		h8.3c0,0-0.2-1.8-1.4-2.9h6.1V39.3z"/>
	<path class="st0" d="M16.5,16.5c-4.4,0-8,3.6-8,8c0,4.4,3.6,8,8,8s8-3.6,8-8C24.5,20.1,20.9,16.5,16.5,16.5z M20.4,25.8h-2.6v2.6
		h-2.5v-2.6h-2.6v-2.5h2.6v-2.6h2.5v2.6h2.6V25.8z"/>
</g>
</svg>
