<?xml version="1.0" encoding="utf-8"?>
<!-- Generator: Adobe Illustrator 19.1.0, SVG Export Plug-In . SVG Version: 6.00 Build 0)  -->
<svg version="1.1" id="Layer_1" xmlns="http://www.w3.org/2000/svg" xmlns:xlink="http://www.w3.org/1999/xlink" x="0px" y="0px"
	 width="20px" height="20px" viewBox="0 0 20 20" style="enable-background:new 0 0 20 20;" xml:space="preserve">
<style type="text/css">
	.st0{fill:#EA6D25;}
	.st1{fill:#FFFFFF;}
</style>
<path class="st0" d="M1.5,10.1V9.7c0-4.6,3.8-8.4,8.5-8.4h0c4.7,0,8.5,3.8,8.5,8.4v0.4c0,4.6-3.8,8.4-8.5,8.4h0
	C5.4,18.4,1.5,14.7,1.5,10.1z"/>
<g>
	<path class="st1" d="M7.4,8.4c0-1.6,1.1-2.7,2.7-2.7c2.1,0,2.7,1.3,2.7,2.1c0,1.1-0.5,1.5-0.9,1.9c-0.5,0.4-1,0.6-1.1,1.3v0.4H9.3
		v-0.5c0.1-1,0.5-1.4,1-1.7c0.4-0.3,0.8-0.6,0.8-1.2c0-0.7-0.4-1-0.9-1C9.3,7,9,7.6,9,8.4H7.4z M9.2,12h1.7v1.7H9.2V12z"/>
</g>
</svg>
