<?xml version="1.0" encoding="utf-8"?>
<!-- Generator: Adobe Illustrator 19.1.0, SVG Export Plug-In . SVG Version: 6.00 Build 0)  -->
<svg version="1.1" id="Layer_1" xmlns="http://www.w3.org/2000/svg" xmlns:xlink="http://www.w3.org/1999/xlink" x="0px" y="0px"
	 width="32px" height="36px" viewBox="0 0 32 36" style="enable-background:new 0 0 32 36;" xml:space="preserve">
<style type="text/css">
	.st0{fill:#99CDE8;}
</style>
<g>
	<g>
		<g>
			<g>
				<path class="st0" d="M6.2,19.6c1.6,1.1,3.2,1.5,4.4,1.7c0,0.3,0,0.8,0.1,1.2c1.1,0.2,2.1,0.7,2.9,1.4c-0.2-0.9-0.2-1.8-0.3-2.5
					c1.2-0.1,3-0.5,4.9-1.8c1.4-0.9,6.1-4.6,6.1-12.5c0-2.1-0.6-3.7-1.8-4.7c-0.6-0.5-1.2-0.8-2-1c-0.4-0.8-1.2-1.2-2.1-1.2
					c-1.3,0-2.4,1.1-2.4,2.5c0,1.4,1.1,2.5,2.4,2.5c0.7,0,1.4-0.4,1.9-0.9c0.2,0.1,0.3,0.2,0.5,0.3c0.6,0.5,0.8,1.4,0.8,2.6
					c0,2.1-0.4,4.1-1.1,5.8c-1.4,0.8-3.9,1.7-8.2,1.7c-5,0-7.3-1.2-8.4-2c-0.7-1.6-1-3.5-1-5.4c0-1.2,0.3-2.1,0.8-2.6
					C3.8,4.3,4,4.2,4.2,4.1c0.5,0.6,1.1,0.9,1.9,0.9c1.3,0,2.4-1.1,2.4-2.5c0-1.4-1.1-2.5-2.4-2.5C5.2,0.1,4.4,0.5,4,1.3
					c-0.8,0.2-1.5,0.5-2,1C0.8,3.3,0.2,4.9,0.2,7C0.2,14.9,4.8,18.6,6.2,19.6z M12.2,16.3c2.5,0,4.7-0.3,6.6-0.9
					c-0.6,0.7-1.3,1.3-2,1.8c-1.9,1.3-3.8,1.4-4.6,1.4c-0.7,0-2.7-0.2-4.6-1.4h0c-0.8-0.5-1.5-1.2-2.1-1.9
					C7.4,16,9.6,16.3,12.2,16.3z"/>
			</g>
		</g>
		<g>
			<g>
				<path class="st0" d="M27.6,14.5c-2.3,0-4.2,1.9-4.2,4.2c0,1.9,1.2,3.5,3,4c-0.1,1.4-0.4,4-2,5.7c-1.1,1.1-2.6,1.7-4.5,1.7
					c-1.5,0-2.7-0.4-3.6-1.2c0,0.1,0,0.1,0,0.2c0,1-0.2,1.9-0.6,2.7c1.2,0.7,2.6,1,4.2,1c2.7,0,4.9-0.9,6.5-2.6
					c2.2-2.4,2.6-5.9,2.7-7.6c1.7-0.6,2.8-2.2,2.8-4C31.8,16.4,29.9,14.5,27.6,14.5z M27.6,21c-1.3,0-2.3-1-2.3-2.3s1-2.3,2.3-2.3
					s2.3,1,2.3,2.3S28.8,21,27.6,21z"/>
			</g>
		</g>
	</g>
	<path class="st0" d="M9.4,23.1c-3.4,0-6.1,2.7-6.1,6.1s2.7,6.1,6.1,6.1c3.4,0,6.1-2.7,6.1-6.1S12.7,23.1,9.4,23.1z M12.6,29.6
		c-1.5,1.5-2.9,2.9-3.1,2.9c0,0,0,0,0,0c0,0,0,0,0,0c-0.2,0-1.6-1.4-3.1-2.9c-0.3-0.3-0.5-0.8-0.5-1.3c0-1,0.8-1.8,1.8-1.8
		c1,0,1.9,1.1,1.9,2c0-0.9,0.8-2,1.8-2c1,0,1.8,0.8,1.8,1.8C13.1,28.8,12.9,29.3,12.6,29.6z"/>
</g>
</svg>
