<?xml version="1.0" encoding="utf-8"?>
<!-- Generator: Adobe Illustrator 19.1.0, SVG Export Plug-In . SVG Version: 6.00 Build 0)  -->
<svg version="1.1" id="Layer_1" xmlns="http://www.w3.org/2000/svg" xmlns:xlink="http://www.w3.org/1999/xlink" x="0px" y="0px"
	 width="28px" height="34px" viewBox="0 0 28 34" style="enable-background:new 0 0 28 34;" xml:space="preserve">
<style type="text/css">
	.st0{fill:#5A5A5A;}
</style>
<g>
	<path class="st0" d="M26,4.2h-7.8v0c0-2.2-1.8-4-4-4s-4,1.8-4,4v0H2.3C1.4,4.2,0.6,5,0.6,5.9v26.4c0,0.9,0.8,1.7,1.7,1.7H26
		c0.9,0,1.7-0.8,1.7-1.7V5.9C27.7,5,26.9,4.2,26,4.2z M14.1,2.1c0.9,0,1.6,0.7,1.6,1.6c0,0.9-0.7,1.6-1.6,1.6
		c-0.9,0-1.6-0.7-1.6-1.6C12.4,2.8,13.2,2.1,14.1,2.1z M24.9,31.2H3.4V7h4.9c-1,1-1.2,2.4-1.2,2.4H14h0.2H21c0,0-0.1-1.5-1.2-2.4
		h5.1V31.2z"/>
	<path class="st0" d="M13.8,13.6c-3.7,0-6.6,3-6.6,6.6c0,3.7,3,6.6,6.6,6.6s6.6-3,6.6-6.6C20.4,16.6,17.4,13.6,13.8,13.6z M17,21.3
		h-2.2v2.2h-2v-2.2h-2.2v-2h2.2v-2.2h2v2.2H17V21.3z"/>
</g>
</svg>
