<?xml version="1.0" encoding="utf-8"?>
<!-- Generator: Adobe Illustrator 19.1.0, SVG Export Plug-In . SVG Version: 6.00 Build 0)  -->
<svg version="1.1" id="Layer_1" xmlns="http://www.w3.org/2000/svg" xmlns:xlink="http://www.w3.org/1999/xlink" x="0px" y="0px"
	 width="10px" height="7px" viewBox="-144 54 10 7" style="enable-background:new -144 54 10 7;" xml:space="preserve">
<style type="text/css">
	.st0{fill:#FFFFFF;}
</style>
<path class="st0" d="M-139.1,54.1l4.6,4.6c0.4,0.4,0.4,1,0,1.4c-0.4,0.4-1,0.4-1.4,0l-3.2-3.2l-3,3c-0.4,0.4-1,0.4-1.4,0
	c-0.4-0.4-0.4-1,0-1.4L-139.1,54.1z"/>
<path class="st0" d="M210.1,584.4l-4.6-4.6c-0.4-0.4-0.4-1,0-1.4s1-0.4,1.4,0l3.2,3.2l3-3c0.4-0.4,1-0.4,1.4,0s0.4,1,0,1.4
	L210.1,584.4z"/>
</svg>
