<?xml version="1.0" encoding="utf-8"?>
<!-- Generator: Adobe Illustrator 19.1.0, SVG Export Plug-In . SVG Version: 6.00 Build 0)  -->
<svg version="1.1" id="Layer_1" xmlns="http://www.w3.org/2000/svg" xmlns:xlink="http://www.w3.org/1999/xlink" x="0px" y="0px"
	 width="32px" height="32px" viewBox="0 0 32 32" style="enable-background:new 0 0 32 32;" xml:space="preserve">
<style type="text/css">
	.st0{fill:#0983C6;}
</style>
<g>
	<g>
		<path class="st0" d="M16.1,0.9c8.3,0,15,6.6,15,14.7v0.6c0,8.1-6.7,14.7-15,14.7s-15-6.6-15-14.7v-0.6C1.1,7.4,7.8,0.9,16.1,0.9z
			 M16.1,28.8c7.2,0,13-5.7,13-12.7v-0.6c0-7-5.8-12.7-13-12.7s-13,5.7-13,12.7v0.6C3.1,23.1,8.9,28.8,16.1,28.8z"/>
	</g>
	<g>
		<polygon class="st0" points="10.1,17.2 10.7,16.6 15.7,21.5 15.7,8.6 16.5,8.6 16.5,21.5 21.5,16.6 22.1,17.2 16.1,23 		"/>
		<polygon class="st0" points="15.2,8.1 17,8.1 17,20.4 21.5,15.9 22.8,17.2 16.1,23.7 9.4,17.2 10.7,15.9 15.2,20.4 		"/>
	</g>
</g>
</svg>
