<?xml version="1.0" encoding="utf-8"?>
<!-- Generator: Adobe Illustrator 19.1.0, SVG Export Plug-In . SVG Version: 6.00 Build 0)  -->
<svg version="1.1" id="Layer_1" xmlns="http://www.w3.org/2000/svg" xmlns:xlink="http://www.w3.org/1999/xlink" x="0px" y="0px"
	 width="32px" height="32px" viewBox="0 0 32 32" style="enable-background:new 0 0 32 32;" xml:space="preserve">
<style type="text/css">
	.st0{fill:#0983C6;}
</style>
<g>
	<g>
		<path class="st0" d="M16.1,30.8c-8.3,0-15-6.6-15-14.7v-0.6c0-8.1,6.7-14.7,15-14.7s15,6.6,15,14.7v0.6
			C31.1,24.2,24.4,30.8,16.1,30.8z M16.1,2.9c-7.2,0-13,5.7-13,12.7v0.6c0,7,5.8,12.7,13,12.7s13-5.7,13-12.7v-0.6
			C29.1,8.5,23.3,2.9,16.1,2.9z"/>
	</g>
	<g>
		<polygon class="st0" points="22.1,14.5 21.5,15 16.5,10.2 16.5,23 15.7,23 15.7,10.2 10.7,15 10.1,14.5 16.1,8.6 		"/>
		<polygon class="st0" points="17,23.5 15.2,23.5 15.2,11.3 10.7,15.7 9.4,14.5 16.1,7.9 22.8,14.5 21.5,15.7 17,11.3 		"/>
	</g>
</g>
</svg>
