<?xml version="1.0" encoding="utf-8"?>
<!-- Generator: Adobe Illustrator 19.1.0, SVG Export Plug-In . SVG Version: 6.00 Build 0)  -->
<svg version="1.1" id="Layer_1" xmlns="http://www.w3.org/2000/svg" xmlns:xlink="http://www.w3.org/1999/xlink" x="0px" y="0px"
	 width="20px" height="20px" viewBox="0 0 20 20" style="enable-background:new 0 0 20 20;" xml:space="preserve">
<style type="text/css">
	.st0{fill:#0076BF;}
</style>
<g>
	<path class="st0" d="M19.9,18.2c0,0.4-0.2,0.8-0.5,1.1s-0.7,0.4-1.1,0.4c-0.4,0-0.8-0.1-1.1-0.4l-4.1-4c-1.4,1-3,1.5-4.7,1.5
		c-1.1,0-2.2-0.2-3.2-0.7s-1.9-1-2.7-1.8s-1.3-1.6-1.8-2.6S0.1,9.6,0.1,8.4s0.2-2.2,0.7-3.2s1-1.9,1.8-2.6s1.6-1.3,2.7-1.8
		s2.1-0.7,3.2-0.7s2.2,0.2,3.2,0.7s1.9,1,2.7,1.8c0.7,0.7,1.3,1.6,1.8,2.6s0.7,2.1,0.7,3.2c0,1.7-0.5,3.3-1.5,4.7l4.1,4
		C19.7,17.4,19.9,17.8,19.9,18.2z M12.2,12.1c1-1,1.6-2.3,1.6-3.7s-0.5-2.7-1.6-3.7S9.9,3.2,8.5,3.2S5.8,3.7,4.7,4.7
		c-1,1-1.6,2.3-1.6,3.7s0.5,2.7,1.6,3.7c1,1,2.3,1.5,3.8,1.5S11.2,13.2,12.2,12.1z"/>
</g>
</svg>
