<?xml version="1.0" encoding="utf-8"?>
<!-- Generator: Adobe Illustrator 19.1.0, SVG Export Plug-In . SVG Version: 6.00 Build 0)  -->
<svg version="1.1" id="Layer_1" xmlns="http://www.w3.org/2000/svg" xmlns:xlink="http://www.w3.org/1999/xlink" x="0px" y="0px"
	 width="44px" height="44px" viewBox="0 0 44 44" style="enable-background:new 0 0 44 44;" xml:space="preserve">
<style type="text/css">
	.st0{fill:#0076BF;}
</style>
<g>
	<path class="st0" d="M43.3,40.2c0,0.9-0.3,1.6-1,2.3s-1.4,1-2.3,1c-0.9,0-1.7-0.3-2.3-1l-8.8-8.7c-3.1,2.1-6.5,3.2-10.3,3.2
		c-2.5,0-4.8-0.5-7.1-1.4c-2.2-0.9-4.2-2.2-5.8-3.8C4,30.1,2.7,28.2,1.8,26c-1-2.2-1.4-4.5-1.4-7s0.5-4.7,1.4-7S4,7.9,5.7,6.3
		c1.6-1.6,3.6-2.9,5.8-3.8s4.6-1.4,7.1-1.4c2.5,0,4.8,0.5,7.1,1.4c2.2,0.9,4.2,2.2,5.8,3.8c1.6,1.6,2.9,3.5,3.9,5.7s1.4,4.5,1.4,7
		c0,3.7-1.1,7.1-3.2,10.2l8.8,8.7C43,38.5,43.3,39.3,43.3,40.2z M26.7,27.1c2.3-2.2,3.4-4.9,3.4-8.1c0-3.1-1.1-5.8-3.4-8.1
		c-2.3-2.2-5-3.3-8.2-3.3c-3.2,0-5.9,1.1-8.2,3.3C8.1,13.2,7,15.9,7,19c0,3.1,1.1,5.8,3.4,8.1s5,3.3,8.2,3.3
		C21.7,30.4,24.4,29.3,26.7,27.1z"/>
</g>
</svg>
