<?xml version="1.0" encoding="utf-8"?>
<!-- Generator: Adobe Illustrator 19.1.0, SVG Export Plug-In . SVG Version: 6.00 Build 0)  -->
<svg version="1.1" id="Layer_1" xmlns="http://www.w3.org/2000/svg" xmlns:xlink="http://www.w3.org/1999/xlink" x="0px" y="0px"
	 width="32px" height="33px" viewBox="0 0 32 33" style="enable-background:new 0 0 32 33;" xml:space="preserve">
<style type="text/css">
	.st0{fill:#99CDE8;}
</style>
<g>
	<g>
		<path class="st0" d="M27.6,14.6c-2.3,0-4.2,1.9-4.2,4.2c0,1.9,1.2,3.5,3,4c-0.1,1.4-0.4,4-2,5.7c-1.1,1.1-2.6,1.7-4.5,1.7
			c-1.7,0-3.1-0.5-4.1-1.6c-1.9-2-2.3-5.5-2.4-7.3c1.2-0.1,3-0.5,4.9-1.8c1.4-0.9,6.1-4.6,6.1-12.5c0-2.1-0.6-3.7-1.8-4.7
			c-0.6-0.5-1.2-0.8-2-1c-0.4-0.8-1.2-1.2-2.1-1.2c-1.3,0-2.4,1.1-2.4,2.5s1.1,2.5,2.4,2.5c0.7,0,1.4-0.4,1.9-0.9
			c0.2,0.1,0.3,0.2,0.5,0.3c0.6,0.5,0.8,1.4,0.8,2.6c0,2.1-0.4,4.1-1.1,5.8c-1.4,0.8-3.9,1.7-8.2,1.7c-5,0-7.3-1.2-8.4-2
			c-0.7-1.6-1-3.5-1-5.4c0-1.2,0.3-2.1,0.8-2.6C3.8,4.4,4,4.3,4.2,4.2c0.5,0.6,1.1,0.9,1.9,0.9c1.3,0,2.4-1.1,2.4-2.5
			S7.4,0.1,6.1,0.1C5.2,0.1,4.4,0.6,4,1.3c-0.8,0.2-1.5,0.5-2,1C0.8,3.4,0.2,5,0.2,7.1c0,7.9,4.6,11.6,6.1,12.5
			c1.6,1.1,3.2,1.5,4.4,1.7c0.1,2.1,0.5,6.4,3.1,9.2c1.5,1.7,3.6,2.5,6.1,2.5c2.7,0,4.9-0.9,6.5-2.6c2.2-2.4,2.6-5.9,2.7-7.6
			c1.7-0.6,2.8-2.2,2.8-4C31.8,16.5,29.9,14.6,27.6,14.6z M29.9,18.8c0,1.3-1,2.3-2.3,2.3s-2.3-1-2.3-2.3s1-2.3,2.3-2.3
			S29.9,17.6,29.9,18.8z M16.8,17.3c-1.9,1.3-3.8,1.4-4.6,1.4c-0.7,0-2.7-0.2-4.6-1.4h0c-0.8-0.5-1.5-1.2-2.1-1.9
			c1.8,0.6,4,0.9,6.7,0.9c2.5,0,4.7-0.3,6.6-0.9C18.2,16.2,17.5,16.8,16.8,17.3z"/>
	</g>
</g>
</svg>
