<?xml version="1.0" encoding="utf-8"?>
<!-- Generator: Adobe Illustrator 19.1.0, SVG Export Plug-In . SVG Version: 6.00 Build 0)  -->
<svg version="1.1" id="Layer_1" xmlns="http://www.w3.org/2000/svg" xmlns:xlink="http://www.w3.org/1999/xlink" x="0px" y="0px"
	 width="35px" height="35px" viewBox="0 0 35 35" style="enable-background:new 0 0 35 35;" xml:space="preserve">
<style type="text/css">
	.st0{fill:#66B3DC;}
</style>
<path class="st0" d="M34.8,34.8c0-1.4-0.5-7.9-1.9-9.3c-1-0.9-7.2-3-9.1-3.8c-1.9-0.8-1.9-1.3-1.9-2c0-0.2,0-2.1,0-2.2
	c2.2-2.3,3.6-5.9,3.6-8.9c0-4.7-3.5-8.4-7.9-8.4c-4.4,0-7.9,3.8-7.9,8.4c0,3,1.4,6.6,3.6,8.9c0,0.1,0,1.9,0,2.2c0,0.7-0.1,1.3-1.9,2
	c-1.9,0.7-8.2,2.9-9.1,3.8c-1.4,1.4-1.9,7.8-1.9,9.3H34.8z"/>
</svg>
