<?xml version="1.0" encoding="utf-8"?>
<!-- Generator: Adobe Illustrator 19.1.0, SVG Export Plug-In . SVG Version: 6.00 Build 0)  -->
<svg version="1.1" id="Layer_1" xmlns="http://www.w3.org/2000/svg" xmlns:xlink="http://www.w3.org/1999/xlink" x="0px" y="0px"
	 width="32px" height="32px" viewBox="0 0 32 32" style="enable-background:new 0 0 32 32;" xml:space="preserve">
<style type="text/css">
	.st0{fill:#0983C6;}
</style>
<g>
	<g>
		<path class="st0" d="M31.1,15.8c0,8.3-6.6,15-14.7,15h-0.6c-8.1,0-14.7-6.7-14.7-15s6.6-15,14.7-15h0.6
			C24.5,0.9,31.1,7.6,31.1,15.8z M3.1,15.8c0,7.2,5.7,13,12.7,13h0.6c7,0,12.7-5.8,12.7-13s-5.7-13-12.7-13h-0.6
			C8.8,2.9,3.1,8.7,3.1,15.8z"/>
	</g>
	<g>
		<polygon class="st0" points="14.7,9.9 15.3,10.4 10.4,15.4 23.3,15.4 23.3,16.2 10.4,16.2 15.3,21.3 14.7,21.8 8.9,15.8 		"/>
		<polygon class="st0" points="23.8,14.9 23.8,16.7 11.6,16.7 16,21.3 14.7,22.5 8.2,15.8 14.7,9.1 16,10.4 11.6,14.9 		"/>
	</g>
</g>
</svg>
