<?xml version="1.0" encoding="utf-8"?>
<!-- Generator: Adobe Illustrator 19.1.0, SVG Export Plug-In . SVG Version: 6.00 Build 0)  -->
<svg version="1.1" id="Layer_1" xmlns="http://www.w3.org/2000/svg" xmlns:xlink="http://www.w3.org/1999/xlink" x="0px" y="0px"
	 width="18px" height="17px" viewBox="0 0 18 17" style="enable-background:new 0 0 18 17;" xml:space="preserve">
<style type="text/css">
	.st0{fill:#3DA848;}
</style>
<path class="st0" d="M7.2,16.5c-0.3,0-0.5-0.1-0.8-0.4L1.1,9.7c-1-1.2-1-1.6-0.9-1.8c0-0.1,0.1-0.2,0.4-0.2c0.3,0,0.9,0.3,1.7,0.8
	l4.2,2.8c0.2,0.1,0.4,0.2,0.6,0.2c0.3,0,0.6-0.1,0.8-0.4l8-9.4c1.1-1.3,1.3-1.3,1.4-1.3c0.1,0,0.2,0,0.2,0.1
	c0.1,0.1,0.1,0.3-0.8,1.8L8,16C7.8,16.3,7.5,16.5,7.2,16.5z"/>
</svg>
