<?xml version="1.0" encoding="utf-8"?>
<!-- Generator: Adobe Illustrator 19.1.0, SVG Export Plug-In . SVG Version: 6.00 Build 0)  -->
<svg version="1.1" id="Layer_1" xmlns="http://www.w3.org/2000/svg" xmlns:xlink="http://www.w3.org/1999/xlink" x="0px" y="0px"
	 width="36px" height="36px" viewBox="0 0 36 36" style="enable-background:new 0 0 36 36;" xml:space="preserve">
<style type="text/css">
	.st0{fill:#66B3DC;}
</style>
<g>
	<path class="st0" d="M26,28.4c0,1.4,0,2.9,0,4.3c0,0.5-0.3,1.3-0.7,1.3H3.7C3.3,34,3,33.1,3,32.7V11h5.6c1.4,0,2.4-0.7,2.4-2V3
		h14.3C25.7,3,26,3.3,26,3.7c0,4.3,0,8.7,0,13c1-0.9,2-1.8,3-2.8c0-2,0-3.9,0-5.9V3.4C29,1.7,28.6,0,26.4,0H10.1L0,9.9v23.6
		C0,34.9,1.2,36,2.6,36c8.6,0,15.3,0,23.9,0c1.3,0,2.6-1.1,2.6-2.5c0-2.6,0-5.3,0-7.9C28,26.5,27,27.4,26,28.4z M8,5.7v2
		C8,8.1,7.9,8,7.4,8H5.5L8,5.7z"/>
	<rect x="6" y="23" class="st0" width="7" height="2"/>
	<rect x="6" y="15" class="st0" width="17" height="2"/>
	<rect x="6" y="19" class="st0" width="11" height="2"/>
</g>
<path class="st0" d="M18.7,26v4h4c3.4-3.4,6.7-6.7,10.1-10.1c-1.3-1.3-2.7-2.7-4-4C25.4,19.2,22,22.6,18.7,26z M20.1,28.6l0-2.3
	c0.7,0.4,1.8,1.6,2.3,2.3H20.1z M31.3,13.4c-0.5,0.5-1,1-1.5,1.5c1.3,1.3,2.7,2.7,4,4l1.5-1.5C34.7,15.5,33.2,14,31.3,13.4z"/>
</svg>
