<?xml version="1.0" encoding="utf-8"?>
<!-- Generator: Adobe Illustrator 19.1.0, SVG Export Plug-In . SVG Version: 6.00 Build 0)  -->
<svg version="1.1" id="Layer_1" xmlns="http://www.w3.org/2000/svg" xmlns:xlink="http://www.w3.org/1999/xlink" x="0px" y="0px"
	 width="38px" height="31px" viewBox="0 0 38 31" style="enable-background:new 0 0 38 31;" xml:space="preserve">
<style type="text/css">
	.st0{fill:#FFFFFF;}
</style>
<g>
	<path class="st0" d="M35.3,30H3c-1.2,0-2.2-1.3-2.2-2.8s1-2.8,2.2-2.8h32.3c1.2,0,2.2,1.3,2.2,2.8S36.5,30,35.3,30z"/>
	<path class="st0" d="M35.3,18.3H3c-1.2,0-2.2-1.3-2.2-2.8s1-2.8,2.2-2.8h32.3c1.2,0,2.2,1.3,2.2,2.8S36.5,18.3,35.3,18.3z"/>
	<path class="st0" d="M35.3,6.6H3c-1.2,0-2.2-1.3-2.2-2.8S1.7,1,3,1h32.3c1.2,0,2.2,1.3,2.2,2.8S36.5,6.6,35.3,6.6z"/>
</g>
</svg>
