<?xml version="1.0" encoding="utf-8"?>
<!-- Generator: Adobe Illustrator 19.1.0, SVG Export Plug-In . SVG Version: 6.00 Build 0)  -->
<svg version="1.1" id="Layer_1" xmlns="http://www.w3.org/2000/svg" xmlns:xlink="http://www.w3.org/1999/xlink" x="0px" y="0px"
	 width="14px" height="15px" viewBox="0 0 14 15" style="enable-background:new 0 0 14 15;" xml:space="preserve">
<style type="text/css">
	.st0{fill:#494949;}
</style>
<g>
	<g>
		<path class="st0" d="M3.7,3.6c0.4,0,0.7-0.3,0.7-0.7V0.7c0-0.4-0.3-0.7-0.7-0.7c-0.4,0-0.7,0.3-0.7,0.7v2.2
			C3.1,3.3,3.4,3.6,3.7,3.6z"/>
		<path class="st0" d="M10.2,3.6c0.4,0,0.7-0.3,0.7-0.7V0.7c0-0.4-0.3-0.7-0.7-0.7c-0.4,0-0.7,0.3-0.7,0.7v2.2
			C9.5,3.3,9.8,3.6,10.2,3.6z"/>
		<path class="st0" d="M13.7,1.8c-0.1-0.1-0.2-0.2-0.4-0.2h-1.7v1.2c0,0.8-0.6,1.4-1.4,1.4c-0.8,0-1.4-0.6-1.4-1.4V1.7H5.1v1.2
			c0,0.8-0.6,1.4-1.4,1.4c-0.8,0-1.4-0.6-1.4-1.4V1.7H0.6c-0.1,0-0.3,0.1-0.4,0.2C0.1,1.9,0.1,2.1,0.1,2.2v11.9
			c0,0.1,0.1,0.3,0.2,0.4c0.1,0.1,0.2,0.2,0.4,0.2h12.7c0.1,0,0.3-0.1,0.4-0.2c0.1-0.1,0.2-0.2,0.2-0.4V2.2
			C13.9,2.1,13.8,1.9,13.7,1.8z M12.8,13.6H1.1V5.8h11.7V13.6z"/>
		<rect x="5.8" y="7" class="st0" width="2.4" height="1.3"/>
		<rect x="9.1" y="7" class="st0" width="2.4" height="1.3"/>
		<rect x="2.4" y="9.1" class="st0" width="2.4" height="1.3"/>
		<rect x="5.8" y="9.1" class="st0" width="2.4" height="1.3"/>
		<rect x="9.1" y="9.1" class="st0" width="2.4" height="1.3"/>
		<rect x="2.4" y="11.1" class="st0" width="2.4" height="1.3"/>
		<rect x="5.8" y="11.1" class="st0" width="2.4" height="1.3"/>
		<rect x="9.1" y="11.1" class="st0" width="2.4" height="1.3"/>
	</g>
</g>
</svg>
