<?xml version="1.0" encoding="utf-8"?>
<!-- Generator: Adobe Illustrator 19.1.0, SVG Export Plug-In . SVG Version: 6.00 Build 0)  -->
<svg version="1.1" id="Layer_1" xmlns="http://www.w3.org/2000/svg" xmlns:xlink="http://www.w3.org/1999/xlink" x="0px" y="0px"
	 width="30px" height="32px" viewBox="0 0 30 32" style="enable-background:new 0 0 30 32;" xml:space="preserve">
<style type="text/css">
	.st0{fill:#FCFCFC;}
	.st1{fill:#5A5A5A;}
</style>
<g>
	<g>
		<path class="st0" d="M26,14.8c-2.2,0-4,1.8-4,4c0,1.8,1.2,3.3,2.8,3.8c0,1.3-0.4,3.8-1.9,5.4c-1,1.1-2.4,1.6-4.3,1.6
			c-1.6,0-2.9-0.5-3.9-1.5c-1.8-1.9-2.2-5.2-2.3-6.9c1.1-0.1,2.9-0.5,4.6-1.7c1.3-0.9,5.7-4.4,5.7-11.8c0-2-0.6-3.5-1.7-4.4
			c-0.5-0.5-1.2-0.8-1.9-1c-0.4-0.7-1.2-1.2-2-1.2C16,1.1,15,2.2,15,3.5s1,2.4,2.3,2.4C18,5.8,18.6,5.5,19,5
			c0.2,0.1,0.3,0.2,0.5,0.3c0.5,0.5,0.8,1.3,0.8,2.5c0,2-0.4,3.8-1.1,5.4c-1.3,0.7-3.7,1.6-7.8,1.6c-4.7,0-6.9-1.2-7.9-1.9
			C3,11.3,2.6,9.6,2.6,7.7c0-1.2,0.3-2,0.8-2.5C3.6,5.1,3.7,5,3.9,5C4.3,5.5,5,5.8,5.7,5.8C6.9,5.8,8,4.8,8,3.5s-1-2.4-2.3-2.4
			c-0.8,0-1.6,0.4-2,1.2C3,2.5,2.3,2.8,1.8,3.3c-1.1,1-1.7,2.5-1.7,4.4c0,7.5,4.4,10.9,5.7,11.8c1.5,1,3,1.4,4.2,1.6
			c0.1,2,0.5,6.1,2.9,8.7c1.5,1.6,3.4,2.3,5.7,2.3c2.6,0,4.6-0.8,6.1-2.4c2.1-2.3,2.5-5.6,2.5-7.2c1.6-0.6,2.7-2.1,2.7-3.8
			C30,16.6,28.2,14.8,26,14.8z M28.1,18.8c0,1.2-1,2.1-2.1,2.1c-1.2,0-2.1-1-2.1-2.1c0-1.2,1-2.1,2.1-2.1
			C27.2,16.6,28.1,17.6,28.1,18.8z M15.8,17.3c-1.8,1.2-3.6,1.3-4.3,1.3c-0.7,0-2.5-0.1-4.3-1.3h0c-0.7-0.5-1.4-1.1-2-1.8
			c1.7,0.6,3.8,0.9,6.3,0.9c2.4,0,4.5-0.3,6.2-0.8C17.1,16.3,16.5,16.9,15.8,17.3z"/>
	</g>
	<g>
		<g>
			<path class="st1" d="M26,13.8c-2.2,0-4,1.8-4,4c0,1.8,1.2,3.3,2.8,3.8c0,1.3-0.4,3.8-1.9,5.4c-1,1.1-2.4,1.6-4.3,1.6
				c-1.6,0-2.9-0.5-3.9-1.5c-1.8-1.9-2.2-5.2-2.3-6.9c1.1-0.1,2.9-0.5,4.6-1.7c1.3-0.9,5.7-4.4,5.7-11.8c0-2-0.6-3.5-1.7-4.4
				c-0.5-0.5-1.2-0.8-1.9-1c-0.4-0.7-1.2-1.2-2-1.2C16,0.1,15,1.2,15,2.5s1,2.4,2.3,2.4C18,4.8,18.6,4.5,19,4
				c0.2,0.1,0.3,0.2,0.5,0.3c0.5,0.5,0.8,1.3,0.8,2.5c0,2-0.4,3.8-1.1,5.4c-1.3,0.7-3.7,1.6-7.8,1.6c-4.7,0-6.9-1.2-7.9-1.9
				C3,10.3,2.6,8.6,2.6,6.7c0-1.2,0.3-2,0.8-2.5C3.6,4.1,3.7,4,3.9,4C4.3,4.5,5,4.8,5.7,4.8C6.9,4.8,8,3.8,8,2.5s-1-2.4-2.3-2.4
				c-0.8,0-1.6,0.4-2,1.2C3,1.5,2.3,1.8,1.8,2.3c-1.1,1-1.7,2.5-1.7,4.4c0,7.5,4.4,10.9,5.7,11.8c1.5,1,3,1.4,4.2,1.6
				c0.1,2,0.5,6.1,2.9,8.7c1.5,1.6,3.4,2.3,5.7,2.3c2.6,0,4.6-0.8,6.1-2.4c2.1-2.3,2.5-5.6,2.5-7.2c1.6-0.6,2.7-2.1,2.7-3.8
				C30,15.6,28.2,13.8,26,13.8z M28.1,17.8c0,1.2-1,2.1-2.1,2.1c-1.2,0-2.1-1-2.1-2.1c0-1.2,1-2.1,2.1-2.1
				C27.2,15.6,28.1,16.6,28.1,17.8z M15.8,16.3c-1.8,1.2-3.6,1.3-4.3,1.3c-0.7,0-2.5-0.1-4.3-1.3h0c-0.7-0.5-1.4-1.1-2-1.8
				c1.7,0.6,3.8,0.9,6.3,0.9c2.4,0,4.5-0.3,6.2-0.8C17.1,15.3,16.5,15.9,15.8,16.3z"/>
		</g>
	</g>
</g>
</svg>
