<?xml version="1.0" encoding="utf-8"?>
<!-- Generator: Adobe Illustrator 19.1.0, SVG Export Plug-In . SVG Version: 6.00 Build 0)  -->
<svg version="1.1" id="Layer_1" xmlns="http://www.w3.org/2000/svg" xmlns:xlink="http://www.w3.org/1999/xlink" x="0px" y="0px"
	 width="28px" height="23px" viewBox="0 0 28 23" style="enable-background:new 0 0 28 23;" xml:space="preserve">
<style type="text/css">
	.st0{fill:#E5D6E5;}
</style>
<path class="st0" d="M25.2,5.8c0,0.2,0,0.5,0,0.7c0,7.6-5.8,16.3-16.3,16.3c-3.2,0-6.3-0.9-8.8-2.6c0.5,0.1,0.9,0.1,1.4,0.1
	c2.7,0,5.2-0.9,7.1-2.5c-2.5,0-4.6-1.7-5.4-4C3.5,14,3.9,14,4.3,14c0.5,0,1-0.1,1.5-0.2C3.2,13.3,1.2,11,1.2,8.2c0,0,0,0,0-0.1
	C2,8.6,2.8,8.8,3.8,8.8c-1.5-1-2.6-2.8-2.6-4.8C1.2,3,1.5,2,2,1.2c2.8,3.5,7.1,5.8,11.8,6c-0.1-0.4-0.1-0.9-0.1-1.3
	c0-3.2,2.6-5.7,5.7-5.7c1.6,0,3.1,0.7,4.2,1.8c1.3-0.3,2.5-0.7,3.6-1.4c-0.4,1.3-1.3,2.5-2.5,3.2C25.9,3.6,27,3.3,28,2.8
	C27.3,4,26.3,5,25.2,5.8z"/>
</svg>
