<?xml version="1.0" encoding="utf-8"?>
<!-- Generator: Adobe Illustrator 19.1.0, SVG Export Plug-In . SVG Version: 6.00 Build 0)  -->
<svg version="1.1" id="Layer_1" xmlns="http://www.w3.org/2000/svg" xmlns:xlink="http://www.w3.org/1999/xlink" x="0px" y="0px"
	 width="35px" height="23px" viewBox="0 0 35 23" style="enable-background:new 0 0 35 23;" xml:space="preserve">
<style type="text/css">
	.st0{fill:#66B3DC;}
</style>
<g>
	<path class="st0" d="M31.7,0.8H3.2c-1.6,0-3,1.3-3,3v16.2c0,1.6,1.3,3,3,3l28.5,0c1.6,0,3-1.3,3-3V3.8C34.7,2.1,33.3,0.8,31.7,0.8z
		 M5.9,14.1c-1.3,0-2.3-1-2.3-2.3c0-1.3,1-2.3,2.3-2.3c1.3,0,2.3,1,2.3,2.3C8.2,13.1,7.1,14.1,5.9,14.1z M17.4,19.5
		c-3.2,0-5.8-3.4-5.8-7.7c0-4.2,2.6-7.7,5.8-7.7c3.2,0,5.8,3.4,5.8,7.7C23.2,16.1,20.6,19.5,17.4,19.5z M29,14.1
		c-1.3,0-2.3-1-2.3-2.3c0-1.3,1-2.3,2.3-2.3s2.3,1,2.3,2.3C31.3,13.1,30.3,14.1,29,14.1z"/>
	<path class="st0" d="M20.2,11.8c-0.6-0.7-1.5-0.9-2.3-1.1c-0.6-0.1-1.2-0.3-1.4-0.6c-0.1-0.2-0.2-0.3-0.2-0.6
		c0-0.3,0.1-0.5,0.2-0.6c0.1-0.1,0.3-0.2,0.6-0.3c0.1,0,0.2,0,0.3,0c1,0,1.1,1,1.1,1c0,0.3,0.3,0.5,0.6,0.5l1.2-0.2
		c0.3,0,0.5-0.3,0.5-0.6c-0.1-0.8-0.5-1.5-1.1-2c-0.4-0.3-0.8-0.5-1.4-0.6V6.5c0-0.3-0.2-0.5-0.5-0.5l-0.7,0c-0.3,0-0.5,0.2-0.5,0.5
		v0.2C16,6.8,15.5,7,15.1,7.3c-0.7,0.6-1,1.4-1,2.4c0,0.5,0.1,1,0.4,1.5c0.2,0.4,0.6,0.7,1,1c0.5,0.3,1.2,0.5,1.8,0.7
		c0.6,0.2,1.2,0.3,1.4,0.6c0.1,0.1,0.2,0.4,0.2,0.6c0,0.4-0.1,0.6-0.3,0.8c-0.2,0.2-0.6,0.4-1,0.4c-0.4,0-0.7-0.2-1-0.5
		c-0.1-0.2-0.3-0.5-0.3-1.1c0-0.1-0.1-0.3-0.2-0.4c-0.1-0.1-0.3-0.1-0.4-0.1l-1.1,0.2c-0.3,0.1-0.5,0.3-0.4,0.6
		c0,0.7,0.2,1.3,0.5,1.7c0.3,0.5,0.7,0.8,1.1,1.1c0.3,0.2,0.7,0.3,1.1,0.4v0.2c0,0.3,0.2,0.5,0.5,0.5h0.7c0.3,0,0.5-0.2,0.5-0.5
		v-0.2c0.7-0.1,1.3-0.4,1.8-0.9c0.6-0.6,0.9-1.4,0.9-2.3c0-0.4-0.1-0.8-0.2-1.2C20.7,12.4,20.5,12.1,20.2,11.8z"/>
</g>
</svg>
