<?xml version="1.0" encoding="utf-8"?>
<!-- Generator: Adobe Illustrator 19.1.0, SVG Export Plug-In . SVG Version: 6.00 Build 0)  -->
<svg version="1.1" id="Layer_1" xmlns="http://www.w3.org/2000/svg" xmlns:xlink="http://www.w3.org/1999/xlink" x="0px" y="0px"
	 width="30px" height="31px" viewBox="0 0 30 31" style="enable-background:new 0 0 30 31;" xml:space="preserve">
<style type="text/css">
	.st0{fill:#66B3DC;}
</style>
<g>
	<path class="st0" d="M8.1,7.6c0.8,0,1.4-0.6,1.4-1.4V1.6c0-0.8-0.6-1.4-1.4-1.4c-0.8,0-1.4,0.6-1.4,1.4v4.6C6.7,7,7.3,7.6,8.1,7.6z
		"/>
	<path class="st0" d="M21.8,7.6c0.8,0,1.4-0.6,1.4-1.4V1.6c0-0.8-0.6-1.4-1.4-1.4c-0.8,0-1.4,0.6-1.4,1.4v4.6
		C20.4,7,21,7.6,21.8,7.6z"/>
	<path class="st0" d="M29.2,3.9c-0.2-0.2-0.5-0.3-0.8-0.3h-3.7v2.6c0,1.7-1.3,3-3,3c-1.7,0-3-1.3-3-3V3.5h-7.7v2.6c0,1.7-1.3,3-3,3
		c-1.6,0-3-1.3-3-3V3.5H1.5c-0.3,0-0.6,0.1-0.8,0.3C0.5,4.1,0.4,4.4,0.4,4.7v25.1c0,0.3,0.1,0.6,0.3,0.8c0.2,0.2,0.5,0.3,0.8,0.3
		h26.9c0.3,0,0.6-0.1,0.8-0.3c0.2-0.2,0.3-0.5,0.3-0.8V4.7C29.6,4.4,29.4,4.1,29.2,3.9z M27.3,28.7H2.6V12.2h24.7V28.7z"/>
	<rect x="12.4" y="14.9" class="st0" width="5.1" height="2.7"/>
	<rect x="19.5" y="14.9" class="st0" width="5.1" height="2.7"/>
	<rect x="5.4" y="19.2" class="st0" width="5.1" height="2.7"/>
	<rect x="12.4" y="19.2" class="st0" width="5.1" height="2.7"/>
	<rect x="19.5" y="19.2" class="st0" width="5.1" height="2.7"/>
	<rect x="5.4" y="23.4" class="st0" width="5.1" height="2.7"/>
	<rect x="12.4" y="23.4" class="st0" width="5.1" height="2.7"/>
	<rect x="19.5" y="23.4" class="st0" width="5.1" height="2.7"/>
</g>
</svg>
