<?xml version="1.0" encoding="utf-8"?>
<!-- Generator: Adobe Illustrator 19.1.0, SVG Export Plug-In . SVG Version: 6.00 Build 0)  -->
<svg version="1.1" id="Layer_1" xmlns="http://www.w3.org/2000/svg" xmlns:xlink="http://www.w3.org/1999/xlink" x="0px" y="0px"
	 width="78px" height="66px" viewBox="0 0 78 66" style="enable-background:new 0 0 78 66;" xml:space="preserve">
<style type="text/css">
	.st0{fill:#999999;}
</style>
<g>
	<g>
		<path d="M54.8,47.2H22.5c-1.2,0-2.2-1.3-2.2-2.8c0-1.5,1-2.8,2.2-2.8h32.3c1.2,0,2.2,1.3,2.2,2.8C57,45.9,56.1,47.2,54.8,47.2z"/>
	</g>
	<g>
		<path d="M54.8,35.5H22.5c-1.2,0-2.2-1.3-2.2-2.8c0-1.5,1-2.8,2.2-2.8h32.3c1.2,0,2.2,1.3,2.2,2.8C57,34.2,56.1,35.5,54.8,35.5z"/>
	</g>
	<g>
		<path d="M54.8,23.7H22.5c-1.2,0-2.2-1.3-2.2-2.8c0-1.5,1-2.8,2.2-2.8h32.3c1.2,0,2.2,1.3,2.2,2.8C57,22.5,56.1,23.7,54.8,23.7z"/>
	</g>
</g>
<g>
	<path class="st0" d="M65,65H12.3c-6.6,0-12-5.4-12-12V12.3c0-6.6,5.4-12,12-12H65c6.6,0,12,5.4,12,12V53C77,59.6,71.6,65,65,65z
		 M12.3,2.3c-5.5,0-10,4.5-10,10V53c0,5.5,4.5,10,10,10H65c5.5,0,10-4.5,10-10V12.3c0-5.5-4.5-10-10-10H12.3z"/>
</g>
</svg>
