<?xml version="1.0" encoding="utf-8"?>
<!-- Generator: Adobe Illustrator 19.1.0, SVG Export Plug-In . SVG Version: 6.00 Build 0)  -->
<svg version="1.1" id="Layer_1" xmlns="http://www.w3.org/2000/svg" xmlns:xlink="http://www.w3.org/1999/xlink" x="0px" y="0px"
	 width="28px" height="27px" viewBox="0 0 28 27" style="enable-background:new 0 0 28 27;" xml:space="preserve">
<style type="text/css">
	.st0{opacity:0.8;fill:#FFFFFF;}
	.st1{fill:#FFFFFF;}
</style>
<g>
	<path class="st0" d="M14.1,26.6h-0.6c-7.3,0-13.2-5.9-13.2-13.2c0-7.3,5.9-13.2,13.2-13.2h0.6c7.3,0,13.2,5.9,13.2,13.2
		C27.4,20.7,21.4,26.6,14.1,26.6z M13.6,1.7C7.1,1.7,1.9,6.9,1.9,13.4S7.1,25,13.6,25h0.6c6.4,0,11.6-5.2,11.6-11.6
		S20.6,1.7,14.1,1.7H13.6z"/>
	<g>
		<polygon class="st1" points="15.2,7.4 14.7,8 19.6,13 6.6,13 6.6,13.8 19.6,13.8 14.7,18.7 15.2,19.3 21.1,13.4 		"/>
		<polygon class="st1" points="15.2,19.8 14.1,18.7 18.6,14.2 6.2,14.2 6.2,12.6 18.6,12.6 14.1,8 15.2,6.9 21.7,13.4 		"/>
	</g>
</g>
</svg>
