<?xml version="1.0" encoding="utf-8"?>
<!-- Generator: Adobe Illustrator 19.1.0, SVG Export Plug-In . SVG Version: 6.00 Build 0)  -->
<svg version="1.1" id="Layer_1" xmlns="http://www.w3.org/2000/svg" xmlns:xlink="http://www.w3.org/1999/xlink" x="0px" y="0px"
	 width="32px" height="32px" viewBox="0 0 32 32" style="enable-background:new 0 0 32 32;" xml:space="preserve">
<style type="text/css">
	.st0{fill:#66B3DC;}
</style>
<path class="st0" d="M31.8,14c0-0.4-0.4-0.7-0.8-0.7h-2.7c-0.4,0-0.7,0-0.7,0c0,0-0.1-0.3-0.2-0.6l-1-2.5c-0.2-0.3-0.3-0.6-0.3-0.6
	s0.2-0.2,0.5-0.5l1.9-1.9c0.3-0.3,0.3-0.7,0-1l-2.8-2.8c-0.3-0.2-0.7-0.2-1,0l-1.9,1.9c-0.3,0.3-0.5,0.5-0.5,0.5c0,0,0,0,0,0
	c-1.1-0.7-3.1-1.3-3.1-1.3c-0.3-0.1-0.6-0.2-0.6-0.2s0-0.3,0-0.7V1c0-0.4-0.3-0.7-0.7-0.8c0,0-1.1-0.2-2-0.2c-0.9,0-2,0.2-2,0.2
	c-0.4,0-0.7,0.4-0.7,0.8v2.7c0,0.4,0,0.7,0,0.7c0,0-0.3,0.1-0.6,0.2l-2.5,1C10,5.8,9.7,5.9,9.7,5.9S9.5,5.7,9.2,5.4L7.3,3.5
	c-0.3-0.3-0.7-0.3-1,0L3.5,6.3c-0.2,0.3-0.2,0.7,0,1l1.9,1.9c0.3,0.3,0.5,0.5,0.5,0.5c-0.7,1.1-1.3,3.1-1.3,3.1
	c-0.1,0.3-0.2,0.6-0.2,0.6s-0.3,0-0.7,0H1c-0.4,0-0.7,0.3-0.8,0.7c0,0-0.2,1.1-0.2,2c0,0.9,0.2,2,0.2,2c0,0.4,0.4,0.7,0.8,0.7h2.7
	c0.4,0,0.7,0,0.7,0c0,0,0.1,0.3,0.2,0.6c0,0,0.6,1.9,1.3,3.1c0,0-0.2,0.2-0.5,0.5l-1.9,1.9c-0.3,0.3-0.3,0.7-0.1,1l0.9,1
	c0.2,0.3,0.4,0.5,0.5,0.5c0,0,0.2,0.2,0.5,0.5l1,0.9c0.3,0.2,0.7,0.2,1-0.1l1.9-1.9c0.3-0.3,0.5-0.5,0.5-0.5s0.3,0.1,0.6,0.3l2.5,1
	c0.3,0.1,0.6,0.2,0.6,0.2s0,0.3,0,0.7V31c0,0.4,0.3,0.7,0.7,0.8l1.3,0.1c0.4,0,0.7,0,0.7,0c0,0,0.3,0,0.7,0l1.3-0.1
	c0.4-0.1,0.7-0.4,0.7-0.8v-2.7c0-0.4,0-0.7,0-0.7s0.3-0.1,0.6-0.2c0,0,1.9-0.6,3.1-1.3c0,0,0.2,0.2,0.5,0.5l1.9,1.9
	c0.3,0.3,0.7,0.3,1,0.1l1-0.9c0.3-0.2,0.5-0.4,0.5-0.5c0,0,0.2-0.2,0.5-0.5l0.9-1c0.2-0.3,0.2-0.7-0.1-1l-1.9-1.9
	c-0.3-0.3-0.5-0.5-0.5-0.5c0.7-1.1,1.3-3.1,1.3-3.1c0.1-0.3,0.2-0.6,0.2-0.6s0.3,0,0.7,0h2.7c0.4,0,0.7-0.3,0.8-0.7
	c0,0,0.2-1.1,0.2-2C32,15.1,31.8,14,31.8,14z M16,22.7c-3.7,0-6.6-3-6.6-6.6c0-3.7,3-6.6,6.6-6.6s6.6,3,6.6,6.6
	C22.7,19.7,19.7,22.7,16,22.7z M16,13.5c-1.4,0-2.5,1.1-2.5,2.5c0,1.4,1.1,2.5,2.5,2.5c1.4,0,2.5-1.1,2.5-2.5
	C18.5,14.6,17.4,13.5,16,13.5z"/>
</svg>
