<?xml version="1.0" encoding="utf-8"?>
<!-- Generator: Adobe Illustrator 19.1.0, SVG Export Plug-In . SVG Version: 6.00 Build 0)  -->
<svg version="1.1" id="Layer_1" xmlns="http://www.w3.org/2000/svg" xmlns:xlink="http://www.w3.org/1999/xlink" x="0px" y="0px"
	 width="35px" height="23px" viewBox="0 0 35 23" style="enable-background:new 0 0 35 23;" xml:space="preserve">
<style type="text/css">
	.st0{fill:#5A5A5A;}
</style>
<g>
	<path class="st0" d="M32,0.3H3.5c-1.6,0-3,1.3-3,3v16.2c0,1.6,1.3,3,3,3l28.5,0c1.6,0,3-1.3,3-3V3.3C35,1.7,33.6,0.3,32,0.3z
		 M6.2,13.7c-1.3,0-2.3-1-2.3-2.3c0-1.3,1-2.3,2.3-2.3c1.3,0,2.3,1,2.3,2.3C8.5,12.7,7.4,13.7,6.2,13.7z M17.7,19.1
		c-3.2,0-5.8-3.4-5.8-7.7c0-4.2,2.6-7.7,5.8-7.7c3.2,0,5.8,3.4,5.8,7.7C23.5,15.6,20.9,19.1,17.7,19.1z M29.3,13.7
		c-1.3,0-2.3-1-2.3-2.3c0-1.3,1-2.3,2.3-2.3c1.3,0,2.3,1,2.3,2.3C31.6,12.7,30.6,13.7,29.3,13.7z"/>
	<path class="st0" d="M20.5,11.4c-0.6-0.7-1.5-0.9-2.3-1.1c-0.6-0.1-1.2-0.3-1.4-0.6c-0.1-0.2-0.2-0.3-0.2-0.6
		c0-0.3,0.1-0.5,0.2-0.6c0.1-0.1,0.3-0.2,0.6-0.3c0.1,0,0.2,0,0.3,0c1,0,1.1,1,1.1,1c0,0.3,0.3,0.5,0.6,0.5l1.2-0.2
		c0.3,0,0.5-0.3,0.5-0.6C21,8,20.6,7.3,20,6.8c-0.4-0.3-0.8-0.5-1.4-0.6V6c0-0.3-0.2-0.5-0.5-0.5l-0.7,0c-0.3,0-0.5,0.2-0.5,0.5v0.2
		c-0.6,0.1-1.1,0.3-1.5,0.7c-0.7,0.6-1,1.4-1,2.4c0,0.5,0.1,1,0.4,1.5c0.2,0.4,0.6,0.7,1,1c0.5,0.3,1.2,0.5,1.8,0.7
		c0.6,0.2,1.2,0.3,1.4,0.6c0.1,0.1,0.2,0.4,0.2,0.6c0,0.4-0.1,0.6-0.3,0.8c-0.2,0.2-0.6,0.4-1,0.4c-0.4,0-0.7-0.2-1-0.5
		c-0.1-0.2-0.3-0.5-0.3-1.1c0-0.1-0.1-0.3-0.2-0.4c-0.1-0.1-0.3-0.1-0.4-0.1l-1.1,0.2c-0.3,0.1-0.5,0.3-0.4,0.6
		c0,0.7,0.2,1.3,0.5,1.7c0.3,0.5,0.7,0.8,1.1,1.1c0.3,0.2,0.7,0.3,1.1,0.4V17c0,0.3,0.2,0.5,0.5,0.5h0.7c0.3,0,0.5-0.2,0.5-0.5v-0.2
		c0.7-0.1,1.3-0.4,1.8-0.9c0.6-0.6,0.9-1.4,0.9-2.3c0-0.4-0.1-0.8-0.2-1.2C21,12,20.8,11.7,20.5,11.4z"/>
</g>
</svg>
