<?xml version="1.0" encoding="utf-8"?>
<!-- Generator: Adobe Illustrator 19.1.0, SVG Export Plug-In . SVG Version: 6.00 Build 0)  -->
<svg version="1.1" id="Layer_1" xmlns="http://www.w3.org/2000/svg" xmlns:xlink="http://www.w3.org/1999/xlink" x="0px" y="0px"
	 width="22px" height="21px" viewBox="0 0 22 21" style="enable-background:new 0 0 22 21;" xml:space="preserve">
<style type="text/css">
	.st0{opacity:0.8;}
	.st1{opacity:0.8;fill:#FFFFFF;}
	.st2{fill:#FFFFFF;}
</style>
<g class="st0">
	<path class="st1" d="M11.1,20.9h-0.5c-5.7,0-10.4-4.6-10.4-10.4S4.9,0.2,10.6,0.2h0.5c5.7,0,10.4,4.6,10.4,10.4
		S16.8,20.9,11.1,20.9z M10.6,1.7c-4.9,0-8.9,4-8.9,8.9s4,8.9,8.9,8.9h0.5c4.9,0,8.9-4,8.9-8.9s-4-8.9-8.9-8.9H10.6z"/>
	<path class="st2" d="M9.5,14.9c-0.3,0-0.5-0.1-0.7-0.3c-0.4-0.4-0.3-1,0.1-1.4l3.2-2.9L9,7.6c-0.4-0.4-0.4-1-0.1-1.4
		c0.4-0.4,1-0.4,1.4-0.1l4.6,4.1l-4.8,4.3C9.9,14.8,9.7,14.9,9.5,14.9z"/>
</g>
</svg>
