<?xml version="1.0" encoding="utf-8"?>
<!-- Generator: Adobe Illustrator 19.1.0, SVG Export Plug-In . SVG Version: 6.00 Build 0)  -->
<svg version="1.1" id="Layer_1" xmlns="http://www.w3.org/2000/svg" xmlns:xlink="http://www.w3.org/1999/xlink" x="0px" y="0px"
	 width="29px" height="37px" viewBox="0 0 29 37" style="enable-background:new 0 0 29 37;" xml:space="preserve">
<style type="text/css">
	.st0{fill-rule:evenodd;clip-rule:evenodd;fill:#66B3DC;}
</style>
<g>
	<path class="st0" d="M5.9,15.6h17.1v2.4H5.9V15.6L5.9,15.6z M5.9,24.1h7.2v2.4H5.9v-4.2V24.1z M5.9,19.8h11.6v2.4H5.9v-3.3V19.8z
		 M10.1,1l-10,10v23.6c0,1.4,1.1,2.5,2.5,2.5c8.6,0,15.3,0,23.9,0c1.3,0,2.5-1.1,2.5-2.5c0-8.5,0-16.9,0-25.4V4.4
		c0-1.7-0.3-3.4-2.5-3.4H10.1L10.1,1z M26.1,4.8c0-0.5-0.4-0.8-0.8-0.8H11V10c0,1.3-1.1,2.5-2.5,2.5H2.9v21.2c0,0.5,0.4,0.8,0.8,0.8
		h21.6c0.5,0,0.8-0.4,0.8-0.8C26.1,24.1,26.1,14.4,26.1,4.8L26.1,4.8z M5.5,9.5l2.8-2.8v2c0,0.5-0.4,0.8-0.8,0.8H5.5z"/>
</g>
</svg>
