<?xml version="1.0" encoding="utf-8"?>
<!-- Generator: Adobe Illustrator 19.1.0, SVG Export Plug-In . SVG Version: 6.00 Build 0)  -->
<svg version="1.1" id="Layer_1" xmlns="http://www.w3.org/2000/svg" xmlns:xlink="http://www.w3.org/1999/xlink" x="0px" y="0px"
	 width="31px" height="32px" viewBox="0 0 31 32" style="enable-background:new 0 0 31 32;" xml:space="preserve">
<style type="text/css">
	.st0{fill:#5A5A5A;}
</style>
<g>
	<path class="st0" d="M8.4,7.8c0.8,0,1.5-0.7,1.5-1.5V1.6c0-0.8-0.7-1.5-1.5-1.5c-0.8,0-1.5,0.7-1.5,1.5v4.8
		C6.9,7.1,7.6,7.8,8.4,7.8z"/>
	<path class="st0" d="M22.5,7.8c0.8,0,1.5-0.7,1.5-1.5V1.6c0-0.8-0.7-1.5-1.5-1.5c-0.8,0-1.5,0.7-1.5,1.5v4.8
		C21.1,7.1,21.7,7.8,22.5,7.8z"/>
	<path class="st0" d="M30.2,3.9c-0.2-0.2-0.5-0.3-0.8-0.3h-3.8v2.7c0,1.7-1.4,3.1-3.1,3.1c-1.7,0-3.1-1.4-3.1-3.1V3.6h-8v2.7
		c0,1.7-1.4,3.1-3.1,3.1C6.7,9.4,5.3,8,5.3,6.3V3.6H1.5c-0.3,0-0.6,0.1-0.8,0.3C0.5,4.1,0.4,4.4,0.4,4.7v26c0,0.3,0.1,0.6,0.3,0.8
		c0.2,0.2,0.5,0.3,0.8,0.3h27.9c0.3,0,0.6-0.1,0.8-0.3c0.2-0.2,0.3-0.5,0.3-0.8v-26C30.6,4.4,30.5,4.1,30.2,3.9z M28.3,29.6H2.7v-17
		h25.6V29.6z"/>
	<rect x="12.9" y="15.3" class="st0" width="5.2" height="2.7"/>
	<rect x="20.2" y="15.3" class="st0" width="5.2" height="2.7"/>
	<rect x="5.5" y="19.8" class="st0" width="5.2" height="2.7"/>
	<rect x="12.9" y="19.8" class="st0" width="5.2" height="2.7"/>
	<rect x="20.2" y="19.8" class="st0" width="5.2" height="2.7"/>
	<rect x="5.5" y="24.2" class="st0" width="5.2" height="2.7"/>
	<rect x="12.9" y="24.2" class="st0" width="5.2" height="2.7"/>
	<rect x="20.2" y="24.2" class="st0" width="5.2" height="2.7"/>
</g>
</svg>
