<?xml version="1.0" encoding="utf-8"?>
<!-- Generator: Adobe Illustrator 19.1.0, SVG Export Plug-In . SVG Version: 6.00 Build 0)  -->
<svg version="1.1" id="Layer_1" xmlns="http://www.w3.org/2000/svg" xmlns:xlink="http://www.w3.org/1999/xlink" x="0px" y="0px"
	 width="27px" height="33px" viewBox="0 0 27 33" style="enable-background:new 0 0 27 33;" xml:space="preserve">
<style type="text/css">
	.st0{fill:#66B3DC;}
</style>
<g>
	<path class="st0" d="M26,11.8h-1.1c0-7.3-5.1-11.5-11.3-11.5C7.4,0.4,2.3,4.6,2.3,11.8H1.2c-0.4,0-0.8,0.3-0.8,0.8v19.5
		c0,0.4,0.3,0.8,0.8,0.8H26c0.4,0,0.8-0.3,0.8-0.8V12.6C26.7,12.2,26.4,11.8,26,11.8z M16.2,24.8c0,1.4-1.1,2.6-2.6,2.6
		c-1.4,0-2.6-1.1-2.6-2.6c0-0.8,0.4-1.5,1-1.9c-0.8-0.5-1.4-1.4-1.4-2.5c0-1.7,1.4-3,3-3c1.7,0,3,1.4,3,3c0,1.1-0.6,2-1.4,2.5
		C15.8,23.4,16.2,24,16.2,24.8z M6.7,11.8c0-4.9,3.1-7.1,6.9-7.1c3.8,0,6.9,2.2,6.9,7.1H6.7z"/>
</g>
</svg>
