<?xml version="1.0" encoding="utf-8"?>
<!-- Generator: Adobe Illustrator 19.1.0, SVG Export Plug-In . SVG Version: 6.00 Build 0)  -->
<svg version="1.1" id="Layer_1" xmlns="http://www.w3.org/2000/svg" xmlns:xlink="http://www.w3.org/1999/xlink" x="0px" y="0px"
	 width="20px" height="20px" viewBox="0 0 20 20" style="enable-background:new 0 0 20 20;" xml:space="preserve">
<style type="text/css">
	.st0{opacity:0.8;fill:#FFFFFF;}
	.st1{fill:#FFFFFF;}
</style>
<g>
	<path class="st0" d="M10.2,19.5H9.8c-5.3,0-9.7-4.4-9.7-9.7c0-5.3,4.4-9.7,9.7-9.7h0.4c5.3,0,9.7,4.4,9.7,9.7
		C19.9,15.2,15.6,19.5,10.2,19.5z M9.8,1.6c-4.5,0-8.2,3.7-8.2,8.2c0,4.5,3.7,8.2,8.2,8.2h0.4c4.5,0,8.2-3.7,8.2-8.2
		c0-4.5-3.7-8.2-8.2-8.2H9.8z"/>
	<g>
		<polygon class="st1" points="11,5.6 10.6,6 14.1,9.5 4.8,9.5 4.8,10.1 14.1,10.1 10.6,13.7 11,14.1 15.2,9.8 		"/>
		<path class="st1" d="M11,14.4l-0.8-0.8l3.3-3.3h-9V9.3h9L10.2,6L11,5.2l4.6,4.6L11,14.4z M10.9,13.7L10.9,13.7l4-3.8L11,5.9
			L10.9,6l3.8,3.8H5v0.1h9.7L10.9,13.7z"/>
	</g>
</g>
</svg>
