<?xml version="1.0" encoding="utf-8"?>
<!-- Generator: Adobe Illustrator 19.1.0, SVG Export Plug-In . SVG Version: 6.00 Build 0)  -->
<svg version="1.1" id="Layer_1" xmlns="http://www.w3.org/2000/svg" xmlns:xlink="http://www.w3.org/1999/xlink" x="0px" y="0px"
	 width="15px" height="16px" viewBox="0 0 15 16" style="enable-background:new 0 0 15 16;" xml:space="preserve">
<style type="text/css">
	.st0{fill:#4D4D4D;}
</style>
<g>
	<g>
		<path class="st0" d="M15,14.5c0,0.3-0.1,0.6-0.3,0.8s-0.5,0.3-0.8,0.3c-0.3,0-0.6-0.1-0.8-0.3L10,12.2c-1.1,0.8-2.3,1.1-3.6,1.1
			c-0.9,0-1.7-0.2-2.4-0.5c-0.8-0.3-1.4-0.8-2-1.4c-0.6-0.6-1-1.3-1.3-2.1C0.3,8.6,0.1,7.7,0.1,6.8c0-0.9,0.2-1.7,0.5-2.5
			c0.3-0.8,0.8-1.5,1.3-2.1c0.6-0.6,1.2-1,2-1.4c0.8-0.3,1.6-0.5,2.4-0.5s1.7,0.2,2.4,0.5c0.8,0.3,1.4,0.8,2,1.4
			c0.6,0.6,1,1.3,1.3,2.1c0.3,0.8,0.5,1.6,0.5,2.5c0,1.3-0.4,2.6-1.1,3.7l3.1,3.2C14.9,13.9,15,14.2,15,14.5z M9.2,9.7
			C10,8.9,10.4,8,10.4,6.8S10,4.7,9.2,3.9S7.5,2.7,6.4,2.7s-2,0.4-2.8,1.2C2.8,4.7,2.4,5.7,2.4,6.8s0.4,2.1,1.2,2.9
			C4.3,10.6,5.3,11,6.4,11S8.4,10.6,9.2,9.7z"/>
	</g>
</g>
</svg>
