<?xml version="1.0" encoding="utf-8"?>
<!-- Generator: Adobe Illustrator 19.1.0, SVG Export Plug-In . SVG Version: 6.00 Build 0)  -->
<svg version="1.1" id="Layer_1" xmlns="http://www.w3.org/2000/svg" xmlns:xlink="http://www.w3.org/1999/xlink" x="0px" y="0px"
	 width="33px" height="34px" viewBox="0 0 33 34" style="enable-background:new 0 0 33 34;" xml:space="preserve">
<style type="text/css">
	.st0{fill:#484848;}
</style>
<path class="st0" d="M9.7,9.2c0.8,0,1.5-0.7,1.5-1.5V2.9c0-0.8-0.7-1.5-1.5-1.5c-0.8,0-1.5,0.7-1.5,1.5v4.8C8.2,8.5,8.9,9.2,9.7,9.2
	z"/>
<path class="st0" d="M23.9,9.2c0.8,0,1.5-0.7,1.5-1.5V2.9c0-0.8-0.7-1.5-1.5-1.5c-0.8,0-1.5,0.7-1.5,1.5v4.8
	C22.4,8.5,23,9.2,23.9,9.2z"/>
<path class="st0" d="M31.6,5.3C31.4,5.1,31.1,5,30.8,5h-3.8v2.7c0,1.7-1.4,3.1-3.1,3.1c-1.7,0-3.1-1.4-3.1-3.1V5h-8v2.7
	c0,1.7-1.4,3.1-3.1,3.1c-1.7,0-3.1-1.4-3.1-3.1V5H2.9C2.6,5,2.3,5.1,2.1,5.3C1.8,5.5,1.7,5.8,1.7,6.1v26c0,0.3,0.1,0.6,0.3,0.8
	c0.2,0.2,0.5,0.3,0.8,0.3h27.9c0.3,0,0.6-0.1,0.8-0.3c0.2-0.2,0.3-0.5,0.3-0.8v-26C31.9,5.8,31.8,5.5,31.6,5.3z M29.6,31H4V14h25.6
	V31z"/>
<rect x="14.2" y="16.7" class="st0" width="5.2" height="2.7"/>
<rect x="21.5" y="16.7" class="st0" width="5.2" height="2.7"/>
<rect x="6.9" y="21.1" class="st0" width="5.2" height="2.7"/>
<rect x="14.2" y="21.1" class="st0" width="5.2" height="2.7"/>
<rect x="21.5" y="21.1" class="st0" width="5.2" height="2.7"/>
<rect x="6.9" y="25.6" class="st0" width="5.2" height="2.7"/>
<rect x="14.2" y="25.6" class="st0" width="5.2" height="2.7"/>
<rect x="21.5" y="25.6" class="st0" width="5.2" height="2.7"/>
</svg>
