<?xml version="1.0" encoding="utf-8"?>
<!-- Generator: Adobe Illustrator 19.1.0, SVG Export Plug-In . SVG Version: 6.00 Build 0)  -->
<svg version="1.1" id="Layer_1" xmlns="http://www.w3.org/2000/svg" xmlns:xlink="http://www.w3.org/1999/xlink" x="0px" y="0px"
	 width="28px" height="28px" viewBox="0 0 28 28" style="enable-background:new 0 0 28 28;" xml:space="preserve">
<style type="text/css">
	.st0{fill:#66B3DC;}
</style>
<g>
	<path class="st0" d="M27.7,26c0-0.5-0.2-0.8-0.5-1.2L21,18.7l0.2-0.3c1.3-1.9,2-4.1,2-6.4c0-1.5-0.3-3-0.9-4.4
		c-0.6-1.4-1.4-2.6-2.5-3.6c-1-1-2.3-1.8-3.7-2.4c-2.8-1.2-6.1-1.2-9,0C5.9,2.1,4.6,2.9,3.6,3.9c-1,1-1.9,2.2-2.5,3.6
		C0.5,8.9,0.2,10.4,0.2,12s0.3,3,0.9,4.4C1.7,17.8,2.6,19,3.6,20c1,1,2.3,1.8,3.7,2.4c1.4,0.6,2.9,0.9,4.5,0.9c2.4,0,4.6-0.7,6.5-2
		l0.3-0.2l6.2,6.1c0.6,0.7,1.7,0.7,2.4,0C27.5,26.8,27.7,26.4,27.7,26z M17.5,17.6C15.9,19.2,14,20,11.8,20c-2.2,0-4.2-0.8-5.8-2.4
		c-1.6-1.6-2.4-3.5-2.4-5.7S4.4,7.8,6,6.3c1.6-1.6,3.5-2.4,5.8-2.4s4.2,0.8,5.8,2.4c1.6,1.6,2.4,3.5,2.4,5.7S19.1,16.1,17.5,17.6z"
		/>
</g>
</svg>
