<?xml version="1.0" encoding="utf-8"?>
<!-- Generator: Adobe Illustrator 19.1.0, SVG Export Plug-In . SVG Version: 6.00 Build 0)  -->
<svg version="1.1" id="Layer_1" xmlns="http://www.w3.org/2000/svg" xmlns:xlink="http://www.w3.org/1999/xlink" x="0px" y="0px"
	 width="422.4px" height="520px" viewBox="0 0 422.4 520" style="enable-background:new 0 0 422.4 520;" xml:space="preserve">
<style type="text/css">
	.st0{fill:none;}
	.st1{fill:#383838;}
	.st2{font-family:'HelveticaNeue-Bold';}
	.st3{font-size:23.8942px;}
	.st4{font-family:'HelveticaNeue-Light';}
	.st5{font-size:20.4807px;}
	.st6{fill:#0083C6;}
	.st7{fill:#90278E;}
	.st8{fill:none;stroke:#B3B3B3;stroke-width:2;stroke-miterlimit:10;}
	.st9{fill:#FFFFFF;}
	.st10{font-family:'HelveticaNeueLTStd-It';}
</style>
<g>
	<rect x="174.5" y="380.7" class="st0" width="212.6" height="22.1"/>
	<text transform="matrix(1 0 0 1 174.4919 398.5938)" class="st1 st2 st3">100% COVERED</text>
	<rect x="174.5" y="408" class="st0" width="212.7" height="24.9"/>
	<text transform="matrix(1 0 0 1 174.4919 423.4648)" class="st1 st4 st5">Blue Cross pays</text>
	<rect x="171.6" y="443.3" class="st6" width="215" height="66.6"/>
	<rect x="174.5" y="5.2" class="st0" width="91.6" height="21.1"/>
	<text transform="matrix(1 0 0 1 174.4919 23.1133)" class="st1 st2 st3">COPAY</text>
	<rect x="174.5" y="32.5" class="st0" width="100.7" height="22.9"/>
	<text transform="matrix(1 0 0 1 174.4919 47.9844)" class="st1 st4 st5">You pay</text>
	<rect x="317.2" y="67.8" class="st7" width="31.6" height="66.6"/>
	<rect x="280.8" y="67.8" class="st7" width="31.6" height="66.6"/>
	<rect x="244.4" y="67.8" class="st7" width="31.6" height="66.6"/>
	<rect x="208" y="67.8" class="st7" width="31.6" height="66.6"/>
	<rect x="353.6" y="67.8" class="st7" width="31.6" height="66.6"/>
	<rect x="171.6" y="67.8" class="st7" width="31.6" height="66.6"/>
	<rect x="174.5" y="192.9" class="st0" width="199.9" height="22.9"/>
	<text transform="matrix(1 0 0 1 174.4919 210.8535)" class="st1 st2 st3">COINSURANCE</text>
	<rect x="174.5" y="220.2" class="st0" width="261.7" height="22.9"/>
	<text transform="matrix(1 0 0 1 174.4919 235.7246)" class="st1 st4 st5">You &amp; Blue Cross split costs</text>
	<rect x="171.6" y="255.5" class="st7" width="215" height="66.6"/>
	<rect x="171.6" y="274.3" class="st6" width="215" height="47.8"/>
	<line class="st8" x1="161.4" y1="519" x2="135.4" y2="519"/>
	<line class="st8" x1="161.4" y1="2" x2="135.4" y2="2"/>
	<line class="st8" x1="136.4" y1="1" x2="136.4" y2="519"/>
	<rect x="3.6" y="173.1" class="st9" width="164.9" height="175.8"/>
	<g>
		<rect x="8.9" y="208.6" class="st0" width="143.8" height="124.5"/>
		<text transform="matrix(1 0 0 1 31.739 224.041)"><tspan x="0" y="0" class="st1 st10 st5">Depending on </tspan><tspan x="-9.2" y="29" class="st1 st10 st5">the service, one </tspan><tspan x="-16.1" y="58" class="st1 st10 st5">or more of these </tspan><tspan x="34.1" y="87" class="st1 st10 st5">may apply</tspan></text>
	</g>
</g>
</svg>
