<?xml version="1.0" encoding="utf-8"?>
<!-- Generator: Adobe Illustrator 19.1.0, SVG Export Plug-In . SVG Version: 6.00 Build 0)  -->
<svg version="1.1" id="Layer_1" xmlns="http://www.w3.org/2000/svg" xmlns:xlink="http://www.w3.org/1999/xlink" x="0px" y="0px"
	 width="300px" height="115px" viewBox="0 0 300 115" style="enable-background:new 0 0 300 115;" xml:space="preserve">
<style type="text/css">
	.st0{fill:#BBBDBF;}
	.st1{fill:#FFFFFF;}
	.st2{fill:#0076BF;}
</style>
<g>
	<path class="st0" d="M15.8,112.9h-3.5L7.1,96L7,96.1v16.8H3.1V93.3H10l4.1,14.3h0.1l4.5-14.3h6.7v19.6h-3.9V96.1L21.3,96
		L15.8,112.9z"/>
	<path class="st0" d="M31.7,112.9l7.1-19.6h5l6.8,19.6h-4.2l-1.4-4.2h-7.8l-1.5,4.2H31.7z M43.9,105.5l-2.7-8.4h-0.1l-2.9,8.4H43.9z
		"/>
	<path class="st0" d="M67.5,98.9c-0.2-2-1.2-3-3.3-3c-1.5,0-3.1,0.8-3.1,2.5c0,2.1,1.9,2.4,3.6,2.8c3,0.8,7.4,1.6,7.4,5.5
		c0,4.9-4.2,6.5-8.5,6.5c-4.5,0-7.7-1.7-7.5-6.7h4.3c-0.2,2.2,1.1,3.6,3.3,3.6c1.7,0,3.9-0.5,3.9-2.6c0-2.3-2.8-2.5-4.5-2.9
		c-2.7-0.7-6.5-1.9-6.5-5.4c0-4.5,4.1-6.5,8.2-6.5c3.8,0,6.8,2.1,6.8,6H67.5z"/>
	<path class="st0" d="M89.9,98.9c-0.2-2-1.2-3-3.3-3c-1.6,0-3.1,0.8-3.1,2.5c0,2.1,1.9,2.4,3.6,2.8c3,0.8,7.4,1.6,7.4,5.5
		c0,4.9-4.2,6.5-8.5,6.5c-4.5,0-7.7-1.7-7.5-6.7h4.3c-0.2,2.2,1.1,3.6,3.3,3.6c1.7,0,3.9-0.5,3.9-2.6c0-2.3-2.8-2.5-4.5-2.9
		c-2.7-0.7-6.5-1.9-6.5-5.4c0-4.5,4.1-6.5,8.2-6.5c3.8,0,6.8,2.1,6.8,6H89.9z"/>
	<path class="st0" d="M100.3,112.9l7.1-19.6h5l6.8,19.6h-4.2l-1.4-4.2h-7.8l-1.5,4.2H100.3z M112.5,105.5l-2.7-8.4h-0.1l-2.9,8.4
		H112.5z"/>
	<path class="st0" d="M136.7,99.6c0-2.1-1.2-3.7-3.8-3.7c-3,0-3.8,4.4-3.8,7.2c0,2.7,0.8,7.2,3.8,7.2c2.5,0,3.8-1.7,3.8-3.7h4.5
		c-0.2,4.9-3.7,6.8-8.2,6.8c-5.7,0-8.2-4.5-8.2-10.2s2.6-10.2,8.2-10.2c4.5,0,8,1.8,8.2,6.8H136.7z"/>
	<path class="st0" d="M148,112.9V93.3h4.2v7.7h7.4v-7.7h4.3v19.6h-4.2v-8.6h-7.5v8.6H148z"/>
	<path class="st0" d="M189,93.3v12.3c0,5.2-3.7,7.7-8.5,7.7c-4.8,0-8.5-2.5-8.5-7.7V93.3h4.2v10.7c0,3.3,0.2,6.3,4.3,6.3
		c4.1,0,4.3-3,4.3-6.3V93.3H189z"/>
	<path class="st0" d="M207.7,98.9c-0.2-2-1.2-3-3.3-3c-1.5,0-3.1,0.8-3.1,2.5c0,2.1,1.9,2.4,3.6,2.8c3,0.8,7.4,1.6,7.4,5.5
		c0,4.9-4.2,6.5-8.5,6.5c-4.5,0-7.7-1.7-7.5-6.7h4.3c-0.2,2.2,1.1,3.6,3.3,3.6c1.7,0,3.9-0.5,3.9-2.6c0-2.3-2.8-2.5-4.5-2.9
		c-2.7-0.7-6.5-1.9-6.5-5.4c0-4.5,4.1-6.5,8.2-6.5c3.8,0,6.8,2.1,6.8,6H207.7z"/>
	<path class="st0" d="M219.3,93.3h13.2v3.3h-8.9v4.6h8.4v3.3h-8.4v5.2h9.2v3.3h-13.5V93.3z"/>
	<path class="st0" d="M238.9,93.3h15.9v3.3h-5.8v16.4h-4.2V96.5h-5.8V93.3z"/>
	<path class="st0" d="M259.7,93.3h15.9v3.3h-5.8v16.4h-4.2V96.5h-5.8V93.3z"/>
	<path class="st0" d="M292.5,98.9c-0.2-2-1.2-3-3.3-3c-1.6,0-3.1,0.8-3.1,2.5c0,2.1,1.9,2.4,3.6,2.8c3,0.8,7.4,1.6,7.4,5.5
		c0,4.9-4.2,6.5-8.5,6.5c-4.5,0-7.7-1.7-7.5-6.7h4.3c-0.2,2.2,1.1,3.6,3.3,3.6c1.7,0,3.9-0.5,3.9-2.6c0-2.3-2.8-2.5-4.5-2.9
		c-2.7-0.7-6.5-1.9-6.5-5.4c0-4.5,4.1-6.5,8.2-6.5c3.8,0,6.8,2.1,6.8,6H292.5z"/>
	<path class="st1" d="M181.3,66.4c11.3-6.3,18.2-16.9,21.8-27.8c3.7-11.4,4-24.8-0.3-33.2c-6.5,3.3-13.9,4.2-21.5,4.3
		c-7.6,0-15-1-21.4-4.3c-4.3,8.4-4,21.8-0.3,33.2C163.1,49.5,169.9,60.1,181.3,66.4L181.3,66.4z"/>
	<g>
		<polygon class="st1" points="125.8,66.5 125.8,48.6 143.8,48.6 143.8,22.3 125.8,22.3 125.8,4.3 99.6,4.3 99.6,22.3 81.7,22.3 
			81.7,48.6 99.6,48.6 99.6,66.5 		"/>
	</g>
	<path class="st2" d="M130.2,65.4c0-1.9,1.5-3.3,3.4-3.3c1.8,0,3.3,1.4,3.3,3.3c0,1.9-1.5,3.3-3.3,3.3
		C131.8,68.7,130.2,67.3,130.2,65.4z M133.6,68.1c1.5,0,2.7-1.2,2.7-2.8c0-1.6-1.2-2.7-2.7-2.7c-1.5,0-2.7,1.2-2.7,2.7
		C130.9,67,132.1,68.1,133.6,68.1z M132.9,67.3h-0.6v-3.8h1.4c0.9,0,1.3,0.3,1.3,1.1c0,0.7-0.4,1-1,1l1.1,1.7h-0.7l-1-1.6h-0.7V67.3
		z M133.6,65.2c0.5,0,0.9,0,0.9-0.6c0-0.5-0.4-0.6-0.8-0.6h-0.8v1.2H133.6z"/>
	<path class="st2" d="M192.6,65.4c0-1.9,1.5-3.3,3.4-3.3c1.8,0,3.3,1.4,3.3,3.3c0,1.9-1.5,3.3-3.3,3.3
		C194.1,68.7,192.6,67.3,192.6,65.4z M195.9,68.1c1.5,0,2.7-1.2,2.7-2.8c0-1.6-1.2-2.7-2.7-2.7c-1.5,0-2.7,1.2-2.7,2.7
		C193.2,67,194.4,68.1,195.9,68.1z M195.2,67.3h-0.6v-3.8h1.5c0.9,0,1.3,0.3,1.3,1.1c0,0.7-0.4,1-1,1l1.1,1.7h-0.6l-1-1.6h-0.7V67.3
		z M195.9,65.2c0.5,0,0.9,0,0.9-0.6c0-0.5-0.4-0.6-0.8-0.6h-0.8v1.2H195.9z"/>
	<g>
		<polygon class="st2" points="127.2,68.4 127.2,50.1 145.5,50.1 145.5,21 127.2,21 127.2,2.7 98.2,2.7 98.2,21 79.9,21 79.9,50.1 
			98.2,50.1 98.2,68.4 		"/>
	</g>
	<path class="st1" d="M112.8,35.6"/>
	<path class="st1" d="M112.8,35.6"/>
	<path class="st1" d="M112.8,35.6"/>
	<path class="st1" d="M112.8,35.6"/>
	<path class="st2" d="M181.5,69.1c12.6-7,20.2-18,24.2-30.2c4.1-12.6,3.4-27.5-1.3-36.8c-7.2,3.6-14.4,5.4-22.8,5.5
		c-8.4,0-15.6-1.8-22.8-5.5c-4.7,9.3-5.4,24.2-1.3,36.8C161.2,51,168.9,62.1,181.5,69.1L181.5,69.1z"/>
	<g>
		<path class="st1" d="M201.4,9c-5.2,1.8-8.2,2.3-11,2.8c-2.6,0.4-5,0.7-8.8,0.7h0c-3.8,0-6.2-0.3-8.8-0.7c-2.8-0.4-5.9-1-11-2.8
			c-3.5,8.4-2.7,19.2,0.5,28.4c3.5,10.4,9.1,19.6,19.4,26c10.4-6.4,15.9-15.6,19.4-26C204,28.2,204.8,17.4,201.4,9z M199.6,33.3
			c-3.2,13.2-11.1,23.2-18.1,27.6c0,0,0,0,0,0h0c0,0,0,0,0,0c-7-4.4-15-14.4-18.1-27.6c-1.7-7-2.2-14.8,0-21.1
			c3.1,0.8,6.1,1.5,9.1,1.9c3,0.4,6,0.7,9,0.7h0c2.9,0,5.9-0.3,9-0.7c3-0.4,6-1.1,9.1-1.9C201.8,18.5,201.3,26.3,199.6,33.3z
			 M181.5,63.4C181.5,63.4,181.5,63.4,181.5,63.4C181.5,63.4,181.5,63.4,181.5,63.4L181.5,63.4z"/>
	</g>
	<path class="st1" d="M183.5,37.2l0-5.8c0,0-0.7-0.2-1.8-0.2c-1.4-0.1-2-0.1-2-0.1l0,0.5c0,0-0.6,0.3-0.7,0.4c0,0.1-0.2,0.3-0.1,0.5
		c0.5,1.4,1.3,2.8,1.5,4.3C181.4,37.1,182.3,37.1,183.5,37.2z"/>
	<path class="st1" d="M176.6,36.4c-0.2,2.3,1.2,3.5,2.9,3.9c1.3,0.3,2.5,0.4,3.9,0.5c0.2,0,0.5,0,0.8,0.1c0.2,0.1,0.4,0.2,0.4,0.4
		c0.1,0.2,0,0.4-0.1,0.5c-0.1,0.2-0.5,0.3-0.5,0.3l-0.1,2.7c0,0,1.1,0,2-0.6c0.8-0.5,1.4-1.2,1.5-2c0.2-0.9,0.1-1.9-0.6-2.8
		c-0.4-0.6-1.2-1-2-1.3c-1.6-0.6-3.3-0.5-5-0.7c-0.3,0-0.5-0.2-0.5-0.5c0-0.4,0.3-0.6,0.3-0.6s-0.2-0.6-0.4-1.3
		c-0.2-0.5-0.5-1.1-0.6-1.5C177.5,34.1,176.7,35.2,176.6,36.4z"/>
	<path class="st1" d="M183.4,41.4l0,4.9l-1.2-0.6l-1.2-0.5l0-4.1C181.9,41.3,182.4,41.3,183.4,41.4z"/>
	<path class="st1" d="M177.9,44.1c-0.7,1.6,0.2,3.1,1.5,3.8c0.7,0.3,1.6,0.6,2.4,0.9c0.7,0.3,2,1.1,2.1,1.5c0.1,0.2-0.2,0.5-0.2,0.5
		l0,1.9c0,0,0.8-0.2,1.4-0.7c0.5-0.5,1-1,0.9-2c0-1-0.5-1.9-2-2.7c-1.2-0.7-2.6-1.2-3.6-1.7c-0.2-0.1-0.3-0.4-0.2-0.6
		c0.1-0.2,0.2-0.3,0.2-0.3l0-2.2c0,0-0.8,0.2-1.2,0.4C178.7,43.1,178.1,43.5,177.9,44.1z"/>
	<path class="st1" d="M183.2,50.6c0-0.2-0.1-0.2-0.1-0.3c-0.3-0.3-0.8-0.6-0.9-0.6c-0.3-0.2-1.1-0.5-1.1-0.5s0.1,5,0.1,7.6
		c0,0.6,0.3,0.7,0.9,0.8c0.7,0,0.9-0.4,0.9-0.7C183,56.1,183.1,52.5,183.2,50.6z"/>
	<path class="st1" d="M183.7,18.4c0.3,0.2,0.3,0.2,0.3,0.6c0.2,0.8,0,2.1,0.1,2.6c0.1,0.2,0.3,0.2,0.4,0.1c1.1-0.6,1.9-1.6,3-2.1
		c0.5-0.2,2,0.5,1.7,1.6c-0.2,0.5-0.4,0.6-0.7,0.9c-0.7,0.7-1.6,1.3-2.4,2.2c-0.5,0.6-1.2,1-1.6,1.7c-0.1,0.2-0.4,0.5-0.4,0.5
		c-1.6-0.3-3.1-0.3-4.3-0.5l0-1.8c0,0,1.2-0.2,1.5-0.8c0,0,0-0.3-0.2-0.4c-0.2-0.2-0.6-0.3-0.7-0.4c1.2,0.2,2,0.4,3.2,0.9
		c0.1-0.1,0-0.4-0.1-0.5c-0.2-0.2-0.2-0.3-0.7-0.4c-0.7-0.2-2.7-0.4-2.7-0.4s0.9,0,1.7-0.1c0.4-0.1,0.7-0.1,0.8-0.3
		c0.1-0.2-0.1-0.5-0.3-0.8c-0.2-0.2-0.4-0.4-0.5-0.6c-0.2-0.2-0.5-0.7-0.8-1c-0.3-0.3-1-0.6-1-0.6s-0.1-1,0.1-1.4
		c0.2-0.3,0.5-0.5,0.7-0.4C181.6,17.7,182.5,18.2,183.7,18.4z"/>
	<g>
		<path class="st1" d="M188.7,30.9c-0.2-1.2-1.2-2.4-2.2-2.9c-2.8-1.4-5.8-0.8-8.6-1.7c-1-0.3-2.3-0.8-2.5-1.8
			c-0.1-0.4,0-1.3,0.4-1.4c0.7-0.2,1.5,0.4,2.5,0.6c0.7,0.2,1.3,0.2,1.8,0c0.2-0.1,0.6-0.2,0.6-0.3c0-0.1-0.3-0.2-0.4-0.3
			c-0.3-0.2-0.6-0.2-1-0.4c-0.6-0.2-1.1-0.5-1.7-0.8c0.5-0.1,1.5-0.1,2-0.1c0.4,0.1,1.8,0,2.2-0.1c0.1,0,0.3-0.1,0.2-0.2
			c-0.2-0.3-0.4-0.4-0.6-0.6c-0.4-0.5-0.7-1.1-1.4-1.3c-1.8-0.7-3.8-0.9-5.6,0.1c-2.4,1.2-3.2,4.1-2.1,6.5c0.9,2,2.8,3.4,4.9,4
			c1.1,0.3,2.1,0.4,3.2,0.5c1.3,0.1,2.6,0.1,3.9,0.4c0.3,0.1,0.6,0.2,0.7,0.5c0.3,0.7,0,1.4-0.6,1.6c0,1.1-0.1,3.4-0.1,3.4
			S189.6,35.9,188.7,30.9z M180,20.3c-0.1,0-0.2,0-0.2,0c-0.2,0.2-0.4,0.3-0.6,0.4c-0.5,0.1-0.4-0.4-0.8-0.6c-0.2-0.2-0.4,0-0.6-0.3
			C178.5,19.7,179.4,19.7,180,20.3z"/>
	</g>
	<g>
		<path class="st1" d="M102.9,50.7L102.9,50.7C102.9,50.7,102.9,50.7,102.9,50.7L102.9,50.7z M109.9,34.3c0.6-1.3,0.3-3.5-1.9-3.8
			l-12.1-1.2c-0.7,2-1.1,4.1-1.1,6.4c0,5.8,2.7,10.9,6.9,14.2l0,0L109.9,34.3z M101,45.7c-2.3-2.7-3.7-6.2-3.7-10.1
			c0-1.3,0.2-2.5,0.4-3.7l9.2,0.8c0.7,0.1,0.7,0.3,0.6,0.7L101,45.7z M122.7,50.7L122.7,50.7C122.7,50.7,122.7,50.7,122.7,50.7
			L122.7,50.7z M130.8,35.6c0-2.2-0.4-4.4-1.2-6.4l-12.1,1.2c-2.3,0.3-2.5,2.5-1.9,3.8l8.3,15.5l0,0
			C128.1,46.5,130.8,41.4,130.8,35.6z M118.1,33.5c-0.2-0.4-0.1-0.7,0.6-0.7l9.2-0.8c0.3,1.2,0.4,2.4,0.4,3.7
			c0,3.9-1.4,7.4-3.7,10.1L118.1,33.5z M95.9,29.3L95.9,29.3C95.9,29.3,95.9,29.3,95.9,29.3L95.9,29.3z M111.9,26c0-1-0.1-1.4-1-2.5
			c-0.9-1.2-0.3-3.6,1.8-3.7c2.1,0,2.7,2.4,1.8,3.7c-0.9,1.1-1,1.4-1,2.5c0,0.9,0.8,1.9,2.7,2h12.8c-2.9-6.1-9.1-10.4-16.3-10.4
			c-7.2,0-13.5,4.3-16.3,10.4h12.8C111.1,27.9,111.9,26.9,111.9,26z M116.4,25.1c0.9-0.9,1.6-2.9,0.7-4.5c2.9,0.9,5.5,2.6,7.5,4.8
			l-8.1,0C116.3,25.5,116.2,25.3,116.4,25.1z M109.1,25.5l-8.1,0c1.9-2.3,4.5-4,7.5-4.8c-0.9,1.5-0.2,3.5,0.7,4.5
			C109.3,25.3,109.2,25.5,109.1,25.5z M111.6,37.5l-8.8,13.1c2.8,1.9,6.2,3,9.9,3c3.7,0,7.1-1.1,9.9-3l-8.8-13.1
			C113.3,36.7,112.3,36.6,111.6,37.5z M112.8,51.1c-2.2,0-4.4-0.5-6.3-1.3l6.1-9.3c0.1-0.1,0.2-0.1,0.3-0.1c0.1,0,0.2,0,0.3,0.1
			l6.1,9.3C117.1,50.6,115,51.1,112.8,51.1z M129.6,29.3C129.6,29.3,129.6,29.3,129.6,29.3L129.6,29.3L129.6,29.3z"/>
	</g>
	<g>
		<path class="st1" d="M179.8,52.4c-0.3,0.3-0.8,1-0.9,2c-0.1,0.9,0.1,1.2,0.4,1.7c0.2,0.4,0.6,0.4,0.8,0c0.1-0.3-0.1-0.6,0.1-1.3
			c0.1-0.5,0.5-0.8,0.5-0.8l0-2.2C180.6,51.8,180.2,52,179.8,52.4z"/>
	</g>
</g>
</svg>
