<?xml version="1.0" encoding="utf-8"?>
<!-- Generator: Adobe Illustrator 19.1.0, SVG Export Plug-In . SVG Version: 6.00 Build 0)  -->
<svg version="1.1" id="Layer_1" xmlns="http://www.w3.org/2000/svg" xmlns:xlink="http://www.w3.org/1999/xlink" x="0px" y="0px"
	 width="486px" height="65px" viewBox="0 0 486 65" style="enable-background:new 0 0 486 65;" xml:space="preserve">
<style type="text/css">
	.st0{fill:#808184;}
	.st1{fill:#FFFFFF;}
	.st2{fill:#0076BF;}
</style>
<g>
	<path class="st0" d="M162.2,45.3h-4l-6-19.3l-0.1,0.1v19.3h-4.5V22.9h7.9l4.7,16.4h0.1l5.1-16.4h7.6v22.5h-4.5V26.1l-0.1-0.1
		L162.2,45.3z"/>
	<path class="st0" d="M180.5,45.3l8.1-22.5h5.7l7.8,22.5h-4.9l-1.6-4.8h-8.9l-1.7,4.8H180.5z M194.5,36.8l-3.1-9.6h-0.1l-3.3,9.6
		H194.5z"/>
	<path class="st0" d="M221.6,29.3c-0.2-2.3-1.4-3.4-3.7-3.4c-1.8,0-3.6,0.9-3.6,2.9c0,2.4,2.2,2.7,4.1,3.2c3.4,0.9,8.5,1.8,8.5,6.4
		c0,5.6-4.9,7.5-9.7,7.5c-5.1,0-8.8-2-8.6-7.7h4.9c-0.2,2.5,1.2,4.2,3.8,4.2c1.9,0,4.5-0.6,4.5-3c0-2.7-3.2-2.8-5.1-3.3
		c-3.1-0.8-7.4-2.2-7.4-6.2c0-5.1,4.7-7.4,9.4-7.4c4.4,0,7.8,2.4,7.8,6.9H221.6z"/>
	<path class="st0" d="M247.2,29.3c-0.2-2.3-1.4-3.4-3.7-3.4c-1.8,0-3.6,0.9-3.6,2.9c0,2.4,2.2,2.7,4.1,3.2c3.4,0.9,8.5,1.8,8.5,6.4
		c0,5.6-4.9,7.5-9.7,7.5c-5.1,0-8.8-2-8.6-7.7h4.9c-0.2,2.5,1.2,4.2,3.8,4.2c1.9,0,4.5-0.6,4.5-3c0-2.7-3.2-2.8-5.1-3.3
		c-3.1-0.8-7.4-2.2-7.4-6.2c0-5.1,4.7-7.4,9.3-7.4c4.4,0,7.8,2.4,7.8,6.9H247.2z"/>
	<path class="st0" d="M259.1,45.3l8.1-22.5h5.7l7.8,22.5h-4.9l-1.6-4.8h-8.9l-1.7,4.8H259.1z M273,36.8l-3.1-9.6h-0.1l-3.3,9.6H273z
		"/>
	<path class="st0" d="M300.8,30.1c0-2.4-1.4-4.3-4.3-4.3c-3.4,0-4.3,5.1-4.3,8.2c0,3.1,0.9,8.2,4.3,8.2c2.9,0,4.3-1.9,4.3-4.3h5.1
		c-0.2,5.6-4.3,7.8-9.4,7.8c-6.5,0-9.4-5.1-9.4-11.7s2.9-11.7,9.4-11.7c5.2,0,9.2,2.1,9.4,7.8H300.8z"/>
	<path class="st0" d="M313.8,45.3V22.9h4.8v8.9h8.5v-8.9h4.9v22.5h-4.8v-9.9h-8.6v9.9H313.8z"/>
	<path class="st0" d="M360.8,22.9v14.1c0,6-4.3,8.9-9.8,8.9c-5.5,0-9.8-2.9-9.8-8.9V22.9h4.8v12.2c0,3.8,0.2,7.3,4.9,7.3
		c4.7,0,4.9-3.5,4.9-7.3V22.9H360.8z"/>
	<path class="st0" d="M382.2,29.3c-0.2-2.3-1.4-3.4-3.7-3.4c-1.8,0-3.6,0.9-3.6,2.9c0,2.4,2.2,2.7,4.1,3.2c3.4,0.9,8.5,1.8,8.5,6.4
		c0,5.6-4.9,7.5-9.7,7.5c-5.1,0-8.8-2-8.6-7.7h4.9c-0.2,2.5,1.2,4.2,3.8,4.2c1.9,0,4.5-0.6,4.5-3c0-2.7-3.2-2.8-5.1-3.3
		c-3.1-0.8-7.4-2.2-7.4-6.2c0-5.1,4.7-7.4,9.4-7.4c4.4,0,7.8,2.4,7.8,6.9H382.2z"/>
	<path class="st0" d="M395.5,22.9h15.1v3.7h-10.2v5.3h9.6v3.7h-9.6v6h10.6v3.7h-15.4V22.9z"/>
	<path class="st0" d="M417.9,22.9h18.2v3.7h-6.7v18.8h-4.8V26.6h-6.7V22.9z"/>
	<path class="st0" d="M441.8,22.9H460v3.7h-6.7v18.8h-4.8V26.6h-6.7V22.9z"/>
	<path class="st0" d="M479.4,29.3c-0.2-2.3-1.4-3.4-3.7-3.4c-1.8,0-3.6,0.9-3.6,2.9c0,2.4,2.2,2.7,4.1,3.2c3.4,0.9,8.5,1.8,8.5,6.4
		c0,5.6-4.9,7.5-9.7,7.5c-5.1,0-8.8-2-8.6-7.7h4.9c-0.2,2.5,1.2,4.2,3.8,4.2c1.9,0,4.5-0.6,4.5-3c0-2.7-3.2-2.8-5.1-3.3
		c-3.1-0.8-7.4-2.2-7.4-6.2c0-5.1,4.7-7.4,9.3-7.4c4.4,0,7.8,2.4,7.8,6.9H479.4z"/>
</g>
<path class="st1" d="M97,61.7c10.7-5.9,17.2-15.9,20.5-26.3c3.5-10.7,3.7-23.4-0.3-31.3c-6.1,3.1-13.1,4-20.2,4
	c-7.1,0-14.1-0.9-20.2-4c-4,7.9-3.8,20.6-0.3,31.3C79.8,45.8,86.2,55.8,97,61.7L97,61.7z"/>
<g>
	<polygon class="st1" points="44.6,61.9 44.6,44.9 61.5,44.9 61.5,20.1 44.6,20.1 44.6,3.2 19.9,3.2 19.9,20.1 2.9,20.1 2.9,44.9 
		19.9,44.9 19.9,61.9 	"/>
</g>
<path class="st2" d="M48.8,60.8c0-1.8,1.5-3.1,3.2-3.1c1.7,0,3.1,1.3,3.1,3.1c0,1.8-1.4,3.1-3.1,3.1C50.2,63.9,48.8,62.6,48.8,60.8z
	 M51.9,63.4c1.4,0,2.5-1.1,2.5-2.6c0-1.5-1.1-2.6-2.5-2.6c-1.4,0-2.5,1.1-2.5,2.6C49.4,62.3,50.5,63.4,51.9,63.4z M51.3,62.6h-0.5
	V59h1.4c0.9,0,1.3,0.3,1.3,1c0,0.6-0.4,0.9-0.9,1l1,1.6h-0.6L51.9,61h-0.6V62.6z M51.9,60.6c0.5,0,0.9,0,0.9-0.6
	c0-0.4-0.4-0.5-0.8-0.5h-0.7v1.1H51.9z"/>
<path class="st2" d="M107.6,60.8c0-1.8,1.4-3.1,3.2-3.1c1.7,0,3.1,1.3,3.1,3.1c0,1.8-1.4,3.1-3.1,3.1
	C109.1,63.9,107.6,62.6,107.6,60.8z M110.8,63.4c1.4,0,2.5-1.1,2.5-2.6c0-1.5-1.1-2.6-2.5-2.6c-1.4,0-2.5,1.1-2.5,2.6
	C108.2,62.3,109.4,63.4,110.8,63.4z M110.1,62.6h-0.5V59h1.4c0.8,0,1.3,0.3,1.3,1c0,0.6-0.4,0.9-0.9,1l1,1.6h-0.6l-0.9-1.6h-0.6
	V62.6z M110.8,60.6c0.5,0,0.9,0,0.9-0.6c0-0.4-0.4-0.5-0.8-0.5h-0.7v1.1H110.8z"/>
<g>
	<polygon class="st2" points="45.9,63.6 45.9,46.4 63.2,46.4 63.2,18.9 45.9,18.9 45.9,1.7 18.5,1.7 18.5,18.9 1.3,18.9 1.3,46.4 
		18.5,46.4 18.5,63.6 	"/>
</g>
<path class="st1" d="M32.3,32.7"/>
<path class="st1" d="M32.3,32.7"/>
<path class="st1" d="M32.3,32.7"/>
<path class="st1" d="M32.3,32.7"/>
<path class="st2" d="M97.1,64.3c11.9-6.6,19.1-17,22.8-28.5c3.9-11.9,3.2-26-1.3-34.8c-6.8,3.4-13.6,5.1-21.6,5.2
	c-7.9,0-14.8-1.7-21.6-5.2c-4.5,8.8-5.1,22.9-1.3,34.8C78,47.3,85.3,57.7,97.1,64.3L97.1,64.3z"/>
<g>
	<path class="st1" d="M115.9,7.6c-4.9,1.7-7.8,2.2-10.4,2.6c-2.5,0.4-4.7,0.6-8.3,0.7h0c-3.6,0-5.8-0.3-8.3-0.7
		c-2.7-0.4-5.5-0.9-10.4-2.6c-3.3,8-2.5,18.1,0.4,26.8c3.3,9.8,8.5,18.5,18.3,24.5c9.8-6.1,15-14.7,18.3-24.5
		C118.4,25.7,119.2,15.5,115.9,7.6z M114.3,30.5c-3,12.4-10.5,21.9-17.1,26c0,0,0,0,0,0h0c0,0,0,0,0,0C90.5,52.4,83,42.9,80,30.5
		c-1.6-6.6-2-14,0-19.9c3,0.8,5.7,1.4,8.6,1.8c2.9,0.4,5.7,0.7,8.5,0.7h0c2.8,0,5.6-0.3,8.5-0.7c2.9-0.4,5.6-1,8.6-1.8
		C116.3,16.5,115.8,23.9,114.3,30.5z M97.2,59C97.1,59,97.1,58.9,97.2,59C97.1,58.9,97.1,59,97.2,59L97.2,59z"/>
</g>
<path class="st1" d="M99,34.2l0-5.4c0,0-0.7-0.1-1.7-0.2c-1.3-0.1-1.9-0.1-1.9-0.1l0,0.5c0,0-0.6,0.3-0.7,0.4c0,0.1-0.2,0.3-0.1,0.5
	c0.5,1.4,1.2,2.7,1.4,4.1C97,34.1,97.9,34.1,99,34.2z"/>
<path class="st1" d="M92.5,33.4c-0.2,2.1,1.2,3.3,2.7,3.7c1.2,0.3,2.4,0.4,3.7,0.5c0.2,0,0.5,0,0.8,0.1c0.2,0.1,0.3,0.2,0.4,0.4
	c0.1,0.2,0,0.4-0.1,0.5c-0.1,0.2-0.5,0.3-0.5,0.3l-0.1,2.6c0,0,1,0,1.9-0.5c0.8-0.5,1.3-1.1,1.5-1.9c0.2-0.9,0.1-1.8-0.6-2.6
	c-0.4-0.6-1.1-1-1.9-1.2c-1.5-0.5-3.2-0.5-4.7-0.7c-0.2,0-0.5-0.2-0.5-0.4c0-0.4,0.3-0.6,0.3-0.6s-0.2-0.6-0.4-1.2
	c-0.2-0.5-0.4-1.1-0.6-1.4C93.3,31.3,92.6,32.3,92.5,33.4z"/>
<path class="st1" d="M98.9,38.1l0,4.6l-1.2-0.5l-1.1-0.5l0-3.9C97.6,38,98,38,98.9,38.1z"/>
<path class="st1" d="M93.8,40.7c-0.6,1.5,0.2,2.9,1.4,3.6c0.7,0.3,1.5,0.6,2.2,0.9c0.7,0.3,1.9,1,2,1.4c0.1,0.2-0.2,0.4-0.2,0.4
	l0,1.8c0,0,0.7-0.2,1.3-0.6c0.5-0.4,0.9-1,0.9-1.9c0-1-0.5-1.8-1.9-2.6c-1.1-0.6-2.4-1.1-3.4-1.6c-0.1-0.1-0.3-0.4-0.2-0.5
	c0.1-0.2,0.2-0.3,0.2-0.3l0-2.1c0,0-0.8,0.2-1.2,0.4C94.5,39.8,94,40.1,93.8,40.7z"/>
<path class="st1" d="M98.7,46.8c0-0.2,0-0.2-0.1-0.3c-0.3-0.3-0.8-0.6-0.9-0.6c-0.3-0.2-1-0.5-1-0.5s0.1,4.7,0.1,7.1
	c0,0.6,0.3,0.7,0.9,0.7c0.7,0,0.8-0.4,0.9-0.6C98.6,52,98.7,48.6,98.7,46.8z"/>
<path class="st1" d="M99.2,16.5c0.2,0.2,0.2,0.2,0.3,0.5c0.2,0.8,0,1.9,0.1,2.5c0.1,0.2,0.2,0.2,0.4,0.1c1-0.6,1.8-1.5,2.8-2
	c0.5-0.2,1.9,0.5,1.6,1.5c-0.2,0.5-0.4,0.6-0.7,0.9c-0.6,0.6-1.5,1.2-2.2,2.1c-0.5,0.6-1.1,1-1.5,1.6c-0.1,0.2-0.3,0.5-0.3,0.5
	c-1.5-0.3-2.9-0.2-4.1-0.5l0-1.7c0,0,1.2-0.2,1.4-0.8c0,0,0-0.2-0.2-0.4c-0.2-0.1-0.5-0.3-0.6-0.3c1.2,0.2,1.9,0.4,3,0.9
	c0.1-0.1,0-0.4-0.1-0.5c-0.2-0.2-0.2-0.2-0.6-0.3c-0.7-0.2-2.6-0.4-2.6-0.4s0.9,0,1.6-0.1c0.4-0.1,0.6-0.1,0.7-0.2
	c0.1-0.2-0.1-0.5-0.3-0.7c-0.2-0.2-0.4-0.4-0.5-0.5c-0.2-0.2-0.5-0.7-0.8-0.9c-0.3-0.2-0.9-0.6-0.9-0.6s-0.1-0.9,0.1-1.3
	c0.1-0.3,0.5-0.4,0.7-0.3C97.3,15.8,98.1,16.3,99.2,16.5z"/>
<g>
	<path class="st1" d="M103.9,28.3c-0.2-1.1-1.1-2.3-2.1-2.8c-2.6-1.3-5.5-0.8-8.1-1.6c-0.9-0.3-2.2-0.7-2.4-1.7
		c-0.1-0.4,0-1.2,0.4-1.3c0.7-0.2,1.4,0.4,2.4,0.6c0.6,0.1,1.2,0.1,1.7,0c0.2-0.1,0.5-0.2,0.6-0.3c0-0.1-0.3-0.2-0.4-0.3
		c-0.3-0.2-0.6-0.2-0.9-0.4c-0.5-0.2-1.1-0.5-1.6-0.8c0.5-0.1,1.4-0.1,1.9-0.1c0.4,0.1,1.7,0,2-0.1c0.1,0,0.3-0.1,0.2-0.2
		c-0.1-0.2-0.4-0.3-0.6-0.6c-0.4-0.5-0.7-1-1.3-1.2c-1.7-0.7-3.6-0.8-5.3,0.1c-2.2,1.2-3,3.9-2,6.1c0.9,1.9,2.6,3.2,4.6,3.8
		c1,0.3,2,0.4,3,0.4c1.3,0.1,2.4,0.1,3.6,0.4c0.3,0.1,0.5,0.2,0.7,0.5c0.3,0.6,0,1.3-0.6,1.5c0,1.1-0.1,3.2-0.1,3.2
		S104.8,32.9,103.9,28.3z M95.7,18.2c-0.1,0-0.2,0-0.2,0c-0.2,0.2-0.4,0.3-0.6,0.4c-0.5,0.1-0.4-0.3-0.7-0.6c-0.2-0.1-0.4,0-0.6-0.3
		C94.3,17.7,95.2,17.7,95.7,18.2z"/>
</g>
<g>
	<path class="st1" d="M41.6,46.9L41.6,46.9C41.6,46.9,41.6,46.9,41.6,46.9L41.6,46.9z M29.6,31.4c0.6-1.3,0.3-3.3-1.8-3.6l-11.4-1.1
		c-0.7,1.9-1.1,3.9-1.1,6c0,5.4,2.5,10.3,6.5,13.4l0,0L29.6,31.4z M21.2,42.2c-2.2-2.6-3.5-5.9-3.5-9.5c0-1.2,0.1-2.4,0.4-3.5
		l8.6,0.8c0.6,0.1,0.7,0.3,0.5,0.7L21.2,42.2z M31.5,23.6c0-1-0.1-1.3-0.9-2.3c-0.9-1.2-0.3-3.4,1.7-3.4c2,0,2.6,2.3,1.7,3.4
		c-0.8,1-1,1.4-0.9,2.3c0,0.8,0.8,1.8,2.5,1.9h12.1c-2.7-5.8-8.6-9.8-15.4-9.8c-6.8,0-12.7,4-15.4,9.8H29
		C30.7,25.4,31.5,24.4,31.5,23.6z M35.7,22.8c0.8-0.9,1.5-2.8,0.7-4.2c2.8,0.8,5.2,2.4,7.1,4.6l-7.6,0C35.6,23.1,35.6,23,35.7,22.8z
		 M28.8,23.2l-7.6,0c1.8-2.1,4.3-3.8,7.1-4.6c-0.9,1.4-0.2,3.3,0.7,4.2C29,23,28.9,23.1,28.8,23.2z M22.9,46.9L22.9,46.9
		C22.9,46.9,22.9,46.9,22.9,46.9L22.9,46.9z M48.2,26.7C48.2,26.7,48.2,26.7,48.2,26.7L48.2,26.7L48.2,26.7z M16.4,26.7L16.4,26.7
		C16.4,26.7,16.4,26.7,16.4,26.7L16.4,26.7z M31.2,34.5l-8.3,12.4c2.7,1.8,5.9,2.8,9.3,2.8c3.5,0,6.7-1,9.3-2.8l-8.3-12.4
		C32.8,33.7,31.8,33.7,31.2,34.5z M32.3,47.3c-2.1,0-4.1-0.4-6-1.3l5.7-8.7c0.1-0.1,0.2-0.1,0.2-0.1c0.1,0,0.2,0,0.2,0.1l5.7,8.7
		C36.4,46.9,34.4,47.3,32.3,47.3z M49.3,32.7c0-2.1-0.4-4.1-1.1-6l-11.4,1.1c-2.1,0.3-2.4,2.4-1.8,3.6l7.8,14.7l0,0
		C46.7,43,49.3,38.1,49.3,32.7z M37.3,30.7c-0.1-0.4-0.1-0.6,0.5-0.7l8.6-0.8c0.3,1.1,0.4,2.3,0.4,3.5c0,3.6-1.3,7-3.5,9.5
		L37.3,30.7z"/>
</g>
<g>
	<path class="st1" d="M95.6,48.6c-0.3,0.3-0.8,0.9-0.8,1.9c-0.1,0.9,0.1,1.1,0.3,1.6c0.2,0.4,0.6,0.4,0.7,0c0.1-0.3-0.1-0.6,0.1-1.2
		c0.1-0.5,0.4-0.7,0.4-0.7l0-2.1C96.3,48,96,48.2,95.6,48.6z"/>
</g>
</svg>
